<svg xmlns="http://www.w3.org/2000/svg" xmlns:xlink="http://www.w3.org/1999/xlink"><defs><style>
    .sprite-symbol-usage {display: none;}
    .sprite-symbol-usage:target {display: inline;}
  </style><symbol viewBox="0 0 480.000000 480.000000" id="safari-pinned-tab"><path d="M218 5.1C145.2 12.7 81 52.8 41.5 115.5c-16.2 25.6-28.4 59.3-33.2 91-2.7 18.5-2.4 53.6.6 71.4 6.8 39.7 21.3 73.9 44.6 105 9.1 12.1 26.3 30.3 37.7 39.8 10.2 8.4 30 21.6 41.4 27.5 15.3 7.9 15.2 7.9 8-1.6-7.9-10.6-13.6-21.5-18-34.7-6.9-20.5-6.7-15-6.4-151.4l.3-123 2.3-3.8c4.8-7.6 12.5-8.6 18.1-2.2 1.6 1.9 3.2 4.9 3.5 6.7.3 1.8.8 47.8 1.1 102.3.6 94.8.7 99.2 2.5 103 4.9 10.1 15.3 9.7 20.1-.9 1.8-3.9 1.9-8.9 1.9-103.9 0-97.3 0-99.9 2-103.6 2.4-4.8 6.4-8.1 9.9-8.1 3.7 0 8.7 3.3 10.8 7.2 1.7 3.1 1.8 9.5 2.3 104.8.4 74.1.8 102.2 1.7 104.1 1.6 3.6 7 7.9 9.9 7.9 4.2 0 8.3-2.8 10.6-7.3l2.3-4.2.1-99.5c0-74.5.3-100.4 1.2-103.1 3-8.7 12-12.2 17.7-6.9 6.4 6 6-1.4 6.5 110 .5 97.2.6 101.6 2.4 104.6 2.2 3.7 6.4 6.4 9.9 6.4 2.7 0 8-3.9 10-7.4.9-1.6 1.3-26 1.7-103.6l.5-101.5 2.5-4.3c4.2-7.4 10.5-9.2 16.1-4.5 6.6 5.6 6.2-.6 6.8 112l.6 102.2 3.4 3.5c4.5 4.6 10.3 5 14.5 1.1 5.8-5.4 5.6-.7 5.6-108.2 0-64.7.4-100.1 1-102.5 3.3-11.8 16.2-13.2 21.4-2.3 1.6 3.2 1.8 12.5 2.2 103.3.4 61.3 1 101 1.6 103 .5 1.7 2.3 4.6 4 6.2 5.7 5.7 14 3.2 17.9-5.4 1.8-3.9 1.9-9.5 1.9-126.2 0-103-.2-123.5-1.5-130.6-3.6-20.5-13.2-41.1-28-59.5-4.9-6.1-6.6-7.6-11.4-9.4-17.3-6.5-39.7-11.8-58.3-13.8-11.3-1.3-35.5-1.2-47.8 0z" /></symbol><symbol viewBox="0 0 15 15" id="search-icon"><title>search icon</title><defs><path id="search-icon_a" d="M0 15V0h15v15z" /></defs><g fill="none" fill-rule="evenodd"><mask id="search-icon_b" fill="#fff"><use xlink:href="#search-icon_a" /></mask><path d="M6.563 11.25a4.687 4.687 0 1 1 0-9.375 4.687 4.687 0 1 1 0 9.375m8.162 2.15l-2.912-2.912a6.526 6.526 0 0 0 1.312-3.925 6.562 6.562 0 1 0-6.563 6.562c1.474 0 2.83-.491 3.926-1.312l2.912 2.912a.936.936 0 1 0 1.325-1.325" fill="#18262C" mask="url(#search-icon_b)" /></g></symbol><symbol viewBox="0 0 20 14" id="menu-icon"><title>Group</title><g fill-rule="nonzero" fill="#6CB33F"><path d="M1 0h18a1 1 0 0 1 0 2H1a1 1 0 1 1 0-2zM1 6h18a1 1 0 0 1 0 2H1a1 1 0 1 1 0-2zM1 12h18a1 1 0 0 1 0 2H1a1 1 0 0 1 0-2z" /></g></symbol></defs><use id="safari-pinned-tab-usage" xlink:href="#safari-pinned-tab" class="sprite-symbol-usage" /><use id="search-icon-usage" xlink:href="#search-icon" class="sprite-symbol-usage" /><use id="menu-icon-usage" xlink:href="#menu-icon" class="sprite-symbol-usage" /></svg>