<svg xmlns="http://www.w3.org/2000/svg" xmlns:xlink="http://www.w3.org/1999/xlink"><defs><style>
    .sprite-symbol-usage {display: none;}
    .sprite-symbol-usage:target {display: inline;}
  </style><symbol viewBox="0 0 480.000000 480.000000" id="safari-pinned-tab"><path d="M218 5.1C145.2 12.7 81 52.8 41.5 115.5c-16.2 25.6-28.4 59.3-33.2 91-2.7 18.5-2.4 53.6.6 71.4 6.8 39.7 21.3 73.9 44.6 105 9.1 12.1 26.3 30.3 37.7 39.8 10.2 8.4 30 21.6 41.4 27.5 15.3 7.9 15.2 7.9 8-1.6-7.9-10.6-13.6-21.5-18-34.7-6.9-20.5-6.7-15-6.4-151.4l.3-123 2.3-3.8c4.8-7.6 12.5-8.6 18.1-2.2 1.6 1.9 3.2 4.9 3.5 6.7.3 1.8.8 47.8 1.1 102.3.6 94.8.7 99.2 2.5 103 4.9 10.1 15.3 9.7 20.1-.9 1.8-3.9 1.9-8.9 1.9-103.9 0-97.3 0-99.9 2-103.6 2.4-4.8 6.4-8.1 9.9-8.1 3.7 0 8.7 3.3 10.8 7.2 1.7 3.1 1.8 9.5 2.3 104.8.4 74.1.8 102.2 1.7 104.1 1.6 3.6 7 7.9 9.9 7.9 4.2 0 8.3-2.8 10.6-7.3l2.3-4.2.1-99.5c0-74.5.3-100.4 1.2-103.1 3-8.7 12-12.2 17.7-6.9 6.4 6 6-1.4 6.5 110 .5 97.2.6 101.6 2.4 104.6 2.2 3.7 6.4 6.4 9.9 6.4 2.7 0 8-3.9 10-7.4.9-1.6 1.3-26 1.7-103.6l.5-101.5 2.5-4.3c4.2-7.4 10.5-9.2 16.1-4.5 6.6 5.6 6.2-.6 6.8 112l.6 102.2 3.4 3.5c4.5 4.6 10.3 5 14.5 1.1 5.8-5.4 5.6-.7 5.6-108.2 0-64.7.4-100.1 1-102.5 3.3-11.8 16.2-13.2 21.4-2.3 1.6 3.2 1.8 12.5 2.2 103.3.4 61.3 1 101 1.6 103 .5 1.7 2.3 4.6 4 6.2 5.7 5.7 14 3.2 17.9-5.4 1.8-3.9 1.9-9.5 1.9-126.2 0-103-.2-123.5-1.5-130.6-3.6-20.5-13.2-41.1-28-59.5-4.9-6.1-6.6-7.6-11.4-9.4-17.3-6.5-39.7-11.8-58.3-13.8-11.3-1.3-35.5-1.2-47.8 0z" /></symbol><symbol viewBox="0 0 200 79" id="logo-desktop-en"><title>logo-desktop</title><g fill="none" fill-rule="evenodd"><path d="M171.366 57.383c.126-.482.48-.74.922-.71h1.204c.216.003.392.02.549.1a.474.474 0 0 1 .266.44c.002.16-.044.293-.126.486l-4.735 13.303-.603 1.739c-.549 1.51-1.182 2.983-1.677 3.914-.547 1.03-1.282 1.525-2.354 1.525h-.304c-.267-.002-.48-.022-.656-.165-.178-.151-.214-.371-.214-.609V76.32c0-.442.202-.86.645-.863h.257c.22-.014.27-.036.448-.34.279-.451.585-1.12.876-1.934l.625-1.72-5.442-13.632c-.114-.262-.162-.393-.162-.558a.538.538 0 0 1 .242-.47c.155-.096.337-.126.543-.128h1.577c.501-.019.886.223 1.034.67l3.859 10.228 3.226-10.187" fill="#006F51" /><path d="M19.43 63.461l-.064-39.509c0-1.58.924-2.862 2.074-2.87 1.052 0 1.914 1.063 2.066 2.451l.04 31.998c.01 1.585.942 2.866 2.082 2.866 1.108.002 2.005-1.184 2.076-2.675v-.036c0-.053.006-.107.006-.161l-.049-31.738c.05-1.51.956-2.718 2.064-2.72.948.002 1.751.885 2.002 2.085l-.014-6.607h-.026C31.667 10.33 35.537 3.109 40.98.15a38.922 38.922 0 0 0-27.673 10.71C-2.471 25.794-3.216 50.75 11.635 66.613a38.933 38.933 0 0 0 13.163 9.238c-2.773-3.148-4.34-6.925-5.151-10.354-.092-.4-.216-1.575-.216-2.037" fill="#6CB33F" /><path d="M60.733 15.982l.066 39.505c.002 1.584-.93 2.865-2.074 2.867-1.046.002-1.908-1.062-2.058-2.448l-.05-31.997c-.006-1.587-.94-2.863-2.088-2.873-1.1.01-1.997 1.199-2.067 2.69v.026c0 .056-.006.113 0 .161l.046 31.744c-.058 1.515-.964 2.713-2.07 2.717-.954.002-1.751-.884-2.004-2.083l.042 6.537.012.063c.006 6.019-3.614 12.985-8.791 16.115 9.813.121 19.68-3.418 27.397-10.72 15.766-14.932 16.51-39.89 1.661-55.753a39.16 39.16 0 0 0-13.961-9.57c3.083 3.199 5.227 7.715 5.728 11.75.13.379.21.806.21 1.27" fill="#BED9A8" /><path d="M40.981.152c-5.444 2.957-9.313 10.177-9.307 16.397l.016.029.038 6.575.052 32.368c.006 1.583.94 2.869 2.084 2.86.818 0 1.519-.652 1.854-1.601.014-.014.018-.02.018-.034.04-.133.084-.27.11-.415 0-.039.02-.073.028-.113.018-.123.03-.248.042-.377.006-.107.022-.207.02-.312l-.022-31.153.008-.625c.048-1.092.55-2.014 1.234-2.433.022-.008.034-.025.046-.035a.416.416 0 0 0 .06-.026c.227-.127.487-.197.754-.201.977 0 1.797.942 2.025 2.201l.022.162c.02.163.002.348.014.517l.05 32.074c.17 1.34 1.022 2.365 2.048 2.357.265.002.515-.072.748-.195.012 0 .024 0 .032-.002.02-.02.032-.04.06-.054.717-.448 1.21-1.447 1.21-2.603l-.012-31.349.018-.431c0-.042.012-.09.016-.133a2.46 2.46 0 0 1 .046-.373c.004-.038.018-.074.022-.115a3.98 3.98 0 0 1 .11-.423l.014-.028c.333-.96 1.038-1.621 1.862-1.615 1.148-.006 2.081 1.28 2.081 2.864l.053 32.384c.252 1.197 1.05 2.075 2.003 2.08 1.106-.005 2.012-1.201 2.07-2.714l-.046-31.742c-.006-.054 0-.11 0-.167v-.026c.07-1.497.968-2.677 2.068-2.687 1.146.01 2.081 1.283 2.087 2.872l.05 32c.15 1.382 1.01 2.451 2.058 2.447 1.144-.002 2.074-1.283 2.074-2.868l-.066-39.512c0-.457-.036-.93-.094-1.374-.604-4.022-2.761-8.444-5.845-11.64A39.015 39.015 0 0 0 40.981.153" fill="#006F51" /><path d="M39.696 79.006c5.441-2.957 8.807-9.935 8.801-16.156l-.016-.03-.038-6.573-.048-32.368c-.008-1.581-.943-2.869-2.088-2.86-.817 0-1.516.652-1.85 1.6a.04.04 0 0 0-.019.037c-.042.13-.082.27-.112.411 0 .042-.016.077-.026.117-.022.12-.03.246-.042.379-.006.104-.026.205-.02.308l.026 31.155-.012.625c-.046 1.09-.551 2.012-1.236 2.431-.022.01-.035.026-.047.037a.171.171 0 0 0-.058.026 1.623 1.623 0 0 1-.751.201c-.978 0-1.801-.945-2.028-2.206l-.022-.159c-.018-.165-.002-.346-.01-.515l-.056-32.075c-.168-1.341-1.022-2.367-2.046-2.358-.264 0-.514.074-.747.197-.012 0-.024 0-.032.004-.022.018-.036.036-.058.052-.717.45-1.214 1.447-1.214 2.599l.01 31.353-.016.431c0 .042-.01.09-.016.13-.004.132-.022.257-.046.376-.002.038-.014.072-.02.114a3.312 3.312 0 0 1-.115.423l-.012.027c-.336.96-1.04 1.621-1.859 1.62-1.15.001-2.08-1.286-2.08-2.87l-.056-32.384c-.25-1.196-1.05-2.072-2.001-2.079-1.106.007-2.014 1.203-2.068 2.714l.044 31.742c.006.056 0 .108 0 .165v.026c-.072 1.499-.972 2.683-2.068 2.69-1.146-.007-2.082-1.286-2.088-2.873l-.048-31.998c-.154-1.382-1.011-2.453-2.06-2.445-1.143 0-2.077 1.28-2.077 2.864l.068 39.512c0 .459.036.932.1 1.375.6 4.021 2.18 7.863 5.26 11.056 4.42 1.775 10.19 3.066 14.897 3.152" fill="#FFF" /><path d="M89.873 26.972a.538.538 0 0 1-.529-.538V7.448a.536.536 0 0 1 .53-.538H99.8a.55.55 0 0 1 .56.538v1.473a.563.563 0 0 1-.56.536h-7.247v5.606h5.81a.537.537 0 0 1 .531.538v1.442a.54.54 0 0 1-.53.538h-5.811v8.853a.537.537 0 0 1-.531.538h-2.15zM107.29 11.559c2.211 0 4.009.743 5.24 2.119 1.23 1.374 1.89 3.358 1.89 5.81 0 2.437-.665 4.433-1.89 5.825-1.22 1.39-2.989 2.158-5.142 2.158h-.008c-2.202.002-4.014-.766-5.262-2.152-1.25-1.387-1.927-3.378-1.927-5.803 0-2.438.665-4.428 1.895-5.812 1.23-1.386 3.02-2.145 5.203-2.145m-2.759 12.268c.581.735 1.571 1.156 2.791 1.156 2.593-.018 3.83-1.7 3.86-5.495-.03-3.796-1.263-5.447-3.892-5.468-2.626.02-3.827 1.64-3.863 5.526.004 2.164.315 3.298 1.102 4.28M122.933 11.559c2.21 0 4.005.743 5.235 2.119 1.235 1.374 1.89 3.358 1.89 5.81 0 2.437-.662 4.433-1.886 5.825-1.22 1.39-2.993 2.158-5.145 2.158h-.012c-2.198.002-4.01-.766-5.256-2.152-1.248-1.387-1.927-3.378-1.927-5.803 0-2.438.661-4.428 1.893-5.812 1.227-1.386 3.02-2.145 5.208-2.145m-2.765 12.268c.583.735 1.575 1.156 2.79 1.156 2.596-.018 3.834-1.7 3.86-5.495-.026-3.796-1.26-5.447-3.885-5.468-2.63.02-3.833 1.64-3.865 5.526.002 2.164.31 3.298 1.1 4.28M133.456 25.097c-1.24-1.353-1.932-3.29-1.932-5.61.01-4.623 2.961-7.917 7.133-7.927 1.036.004 2.12.234 2.789.687l.273.198c.148.084.166.094.224.096V6.593a.658.658 0 0 1 .645-.655h1.805c.381 0 .644.318.644.655v19.723a.656.656 0 0 1-.644.657h-1.488c-.365 0-.645-.294-.672-.665a.86.86 0 0 0-.304.113l-.25.115c-.898.459-1.936.67-3.054.67-2.14.002-3.931-.757-5.17-2.109zm5.802-11.047c-1.418.002-2.547.477-3.342 1.426-.847.99-1.146 1.993-1.152 4.102.02 3.281 1.653 5.124 4.464 5.143a5.52 5.52 0 0 0 1.57-.228c.943-.34 1.12-.566 1.145-1.356V15.72c-.014-.679-.132-.9-.529-1.172-.525-.323-1.292-.498-2.148-.498h-.008zM88.896 45.774c.17-.002.328.066.583.246.893.642 2.48 1.112 3.75 1.11 2.016-.018 3.19-1.084 3.202-2.79 0-.474-.082-.919-.234-1.292-.246-.52-.511-.8-1.485-1.506l-3.38-2.414c-.615-.417-1.116-.84-1.472-1.267-.762-.844-1.2-2.097-1.205-3.41-.002-1.64.575-2.99 1.633-3.914 1.056-.929 2.573-1.425 4.434-1.425 1.435.003 3.03.297 4.162.816.322.097.52.385.469.754v1.68c-.002.173-.006.31-.078.445-.079.147-.259.216-.395.21-.19.006-.349-.081-.58-.274a5.827 5.827 0 0 0-3.435-1.112c-1.91.02-2.99.969-3.002 2.524.012.965.339 1.535 1.487 2.355l3.528 2.443c2.15 1.479 3.058 2.933 3.048 4.974 0 1.732-.643 3.177-1.792 4.174-1.148.997-2.789 1.547-4.76 1.547-1.465-.002-3.192-.264-4.294-.721-.46-.147-.737-.423-.713-.818v-1.765c.004-.282.21-.568.529-.57M100.797 36.725a.66.66 0 0 1-.643-.655v-1.178a.661.661 0 0 1 .643-.657h1.367v-3.26a.651.651 0 0 1 .645-.654h1.805c.357.006.64.296.643.654v3.26h3.92a.67.67 0 0 1 .646.657v1.178c0 .38-.31.653-.647.655l-3.919-.002v8.325c.04 1.568.503 2.073 1.851 2.112a2.88 2.88 0 0 0 1.363-.327l.339-.187c.158-.065.292-.107.422-.107a.548.548 0 0 1 .44.208c.103.13.151.298.151.479v1.058c.024.314-.136.614-.434.719-.772.41-2.018.642-3.082.644-1.288 0-2.328-.36-3.047-1.047-.722-.693-1.098-1.7-1.096-2.937v-8.938h-1.367M110.944 45.398c-.004-1.39.672-2.616 1.872-3.384 1.006-.665 2.504-1.344 4.04-1.85l2.087-.704c.62-.258.671-.325.695-.711V38.1c-.026-1.146-.589-1.575-2.256-1.61-1.479-.004-3.178.438-4.184 1.08-.248.18-.43.25-.635.244a.605.605 0 0 1-.449-.171.61.61 0 0 1-.164-.454v-1.178c-.016-.413.08-.737.38-.919.955-.604 3.515-1.083 5.425-1.091 1.607 0 2.855.344 3.716 1.057.858.715 1.29 1.795 1.287 3.16v10.536a.653.653 0 0 1-.641.657h-1.461c-.218 0-.42-.052-.56-.205-.12-.137-.163-.309-.171-.496-.187.008-.289.038-.561.151l-.515.236c-.74.344-1.95.546-2.904.548-2.915-.004-4.997-1.727-5-4.247m6.018-2.798c-2.322.826-2.757 1.3-2.78 2.683.021 1.266.72 1.844 2.426 1.876.83 0 1.667-.171 2.316-.451.619-.337.683-.41.713-1.277v-3.79l-2.669.957M127.625 34.97c.222 0 .345-.041.757-.219.37-.147.563-.235.692-.266a7.593 7.593 0 0 1 2.714-.485c1.59-.002 2.914.496 3.837 1.41.92.913 1.43 2.232 1.429 3.84v9.504a.66.66 0 0 1-.645.656h-1.838a.654.654 0 0 1-.643-.656V39.66c-.034-2.228-.92-3.137-3.085-3.173-.698 0-1.39.115-1.96.338-.793.33-.966.594-.986 1.304v10.624a.655.655 0 0 1-.64.656h-1.81a.658.658 0 0 1-.643-.656V34.89a.66.66 0 0 1 .643-.654h1.404c.245.004.441.018.596.177.148.157.162.348.164.558h.014M140.676 47.537c-1.238-1.354-1.928-3.288-1.928-5.609.008-4.625 2.964-7.918 7.133-7.926 1.034.004 2.118.231 2.79.684l.274.196c.144.084.162.095.222.099v-5.947a.66.66 0 0 1 .645-.657h1.806a.65.65 0 0 1 .645.657v19.72a.66.66 0 0 1-.645.658h-1.491c-.365 0-.647-.294-.673-.665a.89.89 0 0 0-.303.115l-.248.115c-.898.46-1.936.669-3.052.669-2.144.002-3.93-.754-5.175-2.11zm5.806-11.048c-1.418.004-2.55.476-3.344 1.429-.841.989-1.146 1.992-1.152 4.1.022 3.283 1.653 5.126 4.468 5.142.55 0 1.106-.085 1.57-.23.943-.34 1.115-.56 1.143-1.353v-7.418c-.014-.676-.132-.9-.53-1.172-.52-.322-1.291-.498-2.147-.498h-.008zM153.729 45.398c-.004-1.39.675-2.616 1.875-3.384 1-.665 2.505-1.344 4.037-1.85l2.09-.704c.62-.258.673-.325.691-.711V38.1c-.024-1.146-.589-1.575-2.254-1.61-1.478-.004-3.18.438-4.183 1.08-.253.18-.431.25-.635.244a.614.614 0 0 1-.453-.171.636.636 0 0 1-.167-.454v-1.178c-.008-.413.087-.737.39-.919.949-.604 3.511-1.083 5.42-1.091 1.608 0 2.858.344 3.716 1.057.86.715 1.294 1.795 1.29 3.16v10.536a.657.657 0 0 1-.643.657h-1.463c-.216 0-.419-.052-.557-.205-.12-.137-.164-.309-.172-.496-.187.008-.289.038-.563.151l-.511.236c-.741.344-1.95.546-2.903.548-2.918-.004-5-1.727-5.005-4.247m6.02-2.798c-2.32.826-2.758 1.3-2.783 2.683.023 1.266.724 1.844 2.429 1.876.831 0 1.667-.171 2.316-.451.62-.337.685-.41.711-1.277v-3.79l-2.669.957M168.089 49.411a.654.654 0 0 1-.642-.656V34.89a.655.655 0 0 1 .642-.657h1.462c.2 0 .387.043.523.176.14.135.178.32.178.51v.281c.155-.008.253-.04.525-.177 1.16-.596 1.942-.792 3.14-.79.511.004.854.037 1.116.196.275.163.363.47.355.785v1.326c0 .35-.217.713-.611.715-.054-.004-.149.006-.26-.04l-.131-.024a10.23 10.23 0 0 0-1.908-.204c-1.677.05-2.04.327-2.081 1.525v10.242c0 .338-.247.654-.613.656h-1.695zM177.246 47.537c-1.245-1.354-1.932-3.288-1.932-5.609.01-4.625 2.962-7.918 7.127-7.926 1.038.004 2.12.231 2.795.684l.273.196c.142.084.162.095.22.099v-5.947a.661.661 0 0 1 .645-.657h1.807c.38 0 .642.319.644.657v19.72a.661.661 0 0 1-.644.658h-1.49c-.363 0-.647-.294-.671-.665a.875.875 0 0 0-.305.113l-.246.117c-.902.46-1.938.669-3.054.669-2.146.002-3.933-.754-5.17-2.11zm5.8-11.048c-1.418.004-2.55.476-3.34 1.429-.847.989-1.148 1.992-1.156 4.1.026 3.283 1.653 5.126 4.466 5.142a5.4 5.4 0 0 0 1.57-.23c.943-.34 1.119-.56 1.143-1.353v-7.418c-.012-.676-.128-.9-.529-1.172-.523-.322-1.288-.498-2.148-.498h-.006zM193.298 42.76c-1.122-.646-1.585-.99-2.052-1.509-.675-.693-1.01-1.641-1.007-2.8-.002-1.357.472-2.486 1.34-3.26.866-.775 2.104-1.19 3.604-1.19 1.118-.002 2.018.214 3.076.665.557.222.815.492.783.93v1.357c-.002.308-.174.654-.53.656-.213-.002-.375-.094-.596-.24-1.168-.694-1.757-.874-2.759-.878-1.266.028-1.805.486-1.825 1.49 0 .476.174.883.503 1.17.232.21.595.442 1.312.855l1.09.647c1.209.71 1.762 1.14 2.214 1.733.551.725.874 1.758.874 2.75 0 1.359-.501 2.505-1.405 3.293-.901.788-2.182 1.217-3.714 1.217-1.2 0-2.264-.212-3.41-.663-.616-.216-.884-.506-.848-.99v-1.266c.004-.176.032-.337.128-.474a.515.515 0 0 1 .431-.215.826.826 0 0 1 .51.181c1.095.66 2.057.94 3.048.94 1.435-.021 2.156-.626 2.168-1.671-.006-.742-.36-1.267-1.182-1.727l-.833-.469-.92-.532M100.687 71.468L98.555 64.7h-6.492l-2.162 6.77a.502.502 0 0 1-.485.379H87.72c-.162 0-.304-.016-.435-.107a.474.474 0 0 1-.176-.399v-.128l.012-.037.112-.288 6.141-17.868.199-.556c.172-.659.59-.953 1.352-.915h1.202c.511 0 .788.028 1.026.232.283.197.43.608.64 1.213l5.94 17.868.074.244c.07.11.046.187.052.235a.467.467 0 0 1-.232.411c-.136.079-.289.095-.467.095h-1.963c-.23 0-.427-.163-.51-.38zm-7.857-9.05h4.985l-2.492-7.912-2.493 7.911zM105.2 77.075c-.626-.232-.93-.534-.906-1.024v-1.234c.004-.349.202-.716.589-.716.184.002.337.079.475.145l.37.202c1.103.6 2.81 1.01 4.2 1.007 1.292.002 2.43-.29 3.15-.784.613-.45.911-1.146.917-2.562v-1.156c-.042.016-.094.042-.186.084-1.082.568-2.096.814-3.192.814-2.1.002-3.873-.757-5.107-2.09-1.236-1.332-1.933-3.23-1.933-5.484 0-2.297.747-4.26 2.05-5.647 1.298-1.39 3.147-2.191 5.309-2.191.884 0 1.713.15 2.392.439.179.09.443.242.746.439.126.064.154.083.206.089v-.014c0-.206.038-.385.162-.528.123-.14.305-.19.48-.188h1.518a.65.65 0 0 1 .65.653V71.96c0 1.93-.62 3.445-1.824 4.464-1.202 1.017-2.952 1.521-5.194 1.521-1.66 0-3.57-.324-4.872-.87m8.363-17.538c-.52-.379-1.369-.61-2.34-.606-2.812.016-4.386 1.849-4.406 5.26.014 3.19 1.687 5.16 4.347 5.17.824.002 1.72-.225 2.309-.533.442-.264.5-.367.522-.931V60.42c-.026-.582-.028-.582-.426-.882M120.824 70.008c-1.243-1.34-1.924-3.261-1.924-5.582 0-2.423.633-4.415 1.795-5.811 1.162-1.4 2.856-2.178 4.901-2.176 1.914 0 3.525.685 4.64 1.9 1.12 1.212 1.744 2.937 1.744 4.996v.795a.65.65 0 0 1-.645.659h-9.34c.03 2.917 1.778 4.798 4.465 4.808.948.003 2.248-.394 3.376-1.065l.194-.097a.867.867 0 0 1 .505-.159c.367 0 .615.33.615.683v1.15c.036.498-.208.824-.757 1.017-1.266.603-2.895.96-4.364.961-2.168 0-3.965-.743-5.205-2.079zm8.06-7.709v-.08c-.01-1.983-1.346-3.306-3.398-3.32-1.943.008-3.356 1.384-3.48 3.4h6.878zM136.532 57.412c.216-.002.344-.042.755-.22.37-.147.56-.235.691-.267a7.609 7.609 0 0 1 2.713-.484c1.593-.002 2.917.494 3.837 1.408.922.913 1.427 2.234 1.427 3.84v9.508a.654.654 0 0 1-.64.655h-1.839a.652.652 0 0 1-.641-.655V62.1c-.038-2.226-.924-3.135-3.09-3.169-.693-.002-1.388.115-1.961.338-.79.329-.962.595-.98 1.298v10.63a.661.661 0 0 1-.645.655h-1.807a.655.655 0 0 1-.644-.655V57.332a.658.658 0 0 1 .644-.657h1.404c.245.004.439.024.597.175.147.161.159.35.163.562h.016M159.26 68.48c.365.008.583.354.583.745v1.177c.024.382-.156.693-.489.838-1.028.525-2.703.844-4.227.846-2.297.002-4.156-.713-5.428-2.059-1.28-1.342-1.96-3.298-1.96-5.719 0-2.413.734-4.388 2.082-5.755 1.35-1.366 3.298-2.116 5.68-2.116 1.26 0 2.525.244 3.687.752.42.13.677.413.655.761v1.382c0 .35-.2.713-.583.713-.19.004-.323-.06-.563-.201-1.19-.665-2.082-.913-3.254-.913-2.875.02-4.44 1.821-4.466 5.26.026 3.495 1.655 5.39 4.524 5.409 1.02 0 2.076-.284 3.104-.87l.12-.047c.184-.125.35-.2.535-.203" fill="#006F51" /></g></symbol><symbol viewBox="0 0 138 65" id="logo-desktop-cy"><title>FSA_Wales_Food</title><g fill="none" fill-rule="evenodd"><path d="M12.182 41.551l-.042-25.927c0-1.036.61-1.879 1.37-1.884.693 0 1.263.7 1.36 1.608l.028 21c.005 1.041.622 1.883 1.374 1.881.73.002 1.323-.776 1.37-1.756v-.024l.002-.107-.03-20.827c.033-.992.63-1.782 1.362-1.784.625.002 1.155.58 1.32 1.368l-.007-4.336h-.02c-.01-4.08 2.54-8.817 6.133-10.757a25.751 25.751 0 0 0-18.26 7.027C-2.27 16.834-2.76 33.211 7.038 43.621a25.761 25.761 0 0 0 8.687 6.063c-1.83-2.067-2.863-4.545-3.398-6.797a9.372 9.372 0 0 1-.145-1.336" fill="#6CB33F" /><path d="M39.433 10.395l.044 25.924c.001 1.04-.612 1.88-1.367 1.883-.692.002-1.258-.7-1.36-1.605l-.033-21c-.004-1.042-.62-1.88-1.376-1.886-.724.006-1.319.787-1.365 1.765v.018c0 .037-.004.072 0 .106l.031 20.832c-.036.992-.636 1.78-1.366 1.782-.629.002-1.156-.578-1.322-1.367l.028 4.288.008.044c.002 3.95-2.385 8.52-5.8 10.575a25.819 25.819 0 0 0 18.076-7.036c10.403-9.8 10.892-26.179 1.096-36.588a25.813 25.813 0 0 0-9.21-6.279c2.032 2.099 3.447 5.064 3.78 7.71.084.248.136.528.136.834" fill="#BED9A8" /><path d="M26.402.006c-3.592 1.94-6.144 6.678-6.139 10.76l.008.019.025 4.315.034 21.242c.004 1.039.622 1.88 1.376 1.877.539 0 1.002-.427 1.223-1.05a.028.028 0 0 0 .012-.024c.027-.086.055-.178.074-.271 0-.028.012-.05.017-.075.014-.08.019-.162.028-.248.004-.07.015-.134.012-.203l-.014-20.446.006-.41c.031-.716.363-1.322.816-1.595.014-.006.021-.018.029-.024a.146.146 0 0 0 .038-.017c.151-.084.323-.13.499-.132.644 0 1.186.618 1.335 1.445l.015.106c.012.107.002.228.01.339l.033 21.049c.111.879.674 1.552 1.349 1.547.175.002.34-.05.495-.13l.021-.001c.014-.012.023-.024.039-.035.472-.293.799-.95.799-1.705l-.007-20.575.012-.282c0-.03.006-.06.01-.09.002-.081.015-.166.03-.243.003-.026.011-.05.016-.075.016-.092.043-.19.072-.28l.009-.017c.22-.63.684-1.064 1.227-1.06.759-.004 1.373.842 1.373 1.88l.035 21.253c.166.785.693 1.362 1.322 1.364.73-.002 1.33-.79 1.366-1.782l-.031-20.83c-.004-.035 0-.072 0-.108v-.017c.047-.983.641-1.76 1.365-1.765.756.006 1.373.843 1.376 1.885l.034 20.999c.101.907.668 1.61 1.359 1.606.755-.002 1.368-.842 1.368-1.883l-.045-25.927a6.75 6.75 0 0 0-.063-.904c-.397-2.638-1.821-5.541-3.854-7.636A25.84 25.84 0 0 0 26.402.006" fill="#006F51" /><path d="M25.554 51.754c3.59-1.94 5.811-6.52 5.806-10.602l-.009-.02-.025-4.314-.033-21.242c-.004-1.038-.622-1.882-1.377-1.877-.538 0-1 .428-1.222 1.051a.026.026 0 0 0-.012.023 2.906 2.906 0 0 0-.074.272c0 .027-.01.048-.017.074-.013.08-.019.162-.027.25-.006.068-.017.134-.013.202l.015 20.445-.008.41c-.029.717-.363 1.322-.813 1.596a.091.091 0 0 0-.03.025.081.081 0 0 0-.039.016 1.072 1.072 0 0 1-.497.132c-.646 0-1.189-.619-1.337-1.447l-.016-.103c-.01-.11 0-.229-.007-.34l-.035-21.049c-.11-.879-.674-1.553-1.35-1.547a1.017 1.017 0 0 0-.492.128c-.01 0-.017 0-.022.002-.015.012-.024.025-.04.036-.473.295-.8.95-.8 1.705l.008 20.574-.012.284a.45.45 0 0 1-.01.087 1.48 1.48 0 0 1-.03.245c-.002.025-.01.048-.015.074a2.126 2.126 0 0 1-.074.28l-.008.017c-.22.631-.685 1.064-1.227 1.06-.758.004-1.373-.84-1.373-1.879l-.036-21.254c-.165-.784-.692-1.36-1.32-1.364-.73.003-1.33.79-1.366 1.782l.03 20.83c.003.036 0 .071 0 .108v.017c-.047.983-.64 1.76-1.365 1.764-.756-.004-1.374-.842-1.378-1.883l-.032-21c-.102-.906-.668-1.61-1.358-1.605-.754.001-1.369.841-1.369 1.88l.045 25.93c0 .301.022.612.064.903.394 2.638 1.438 5.158 3.47 7.254 2.916 1.166 6.724 2.013 9.83 2.07" fill="#FFF" /><path d="M59.618 61.121a.215.215 0 0 1-.21.21h-.885a.217.217 0 0 1-.212-.21v-5.846h-.913a.215.215 0 0 1-.21-.21v-.563c0-.11.097-.21.21-.21h.913v-.802c0-.828.17-1.276.618-1.629.38-.31.9-.475 1.42-.475.576 0 .941.137.941.378v.576c0 .127-.056.21-.14.21a.377.377 0 0 1-.154-.041l-.127-.057a1.2 1.2 0 0 0-.409-.084c-.574 0-.842.322-.842 1.038l.015.886h1.363c.112 0 .21.1.21.21v.59c0 .127-.07.184-.21.184h-1.378v5.845zM63.358 59.996c.31.38.828.59 1.447.59 1.334 0 1.994-.898 1.994-2.727 0-1.824-.66-2.71-2.009-2.71-1.348 0-1.995.87-1.995 2.74 0 1.04.157 1.615.563 2.107m1.432-5.816c2.123 0 3.387 1.377 3.387 3.68 0 2.29-1.279 3.709-3.345 3.709-2.107 0-3.412-1.419-3.412-3.694 0-2.29 1.279-3.694 3.37-3.694M70.871 59.996c.31.38.828.59 1.447.59 1.334 0 1.994-.898 1.994-2.727 0-1.824-.66-2.71-2.009-2.71-1.348 0-1.994.87-1.994 2.74 0 1.04.154 1.615.562 2.107m1.432-5.816c2.121 0 3.386 1.377 3.386 3.68 0 2.29-1.279 3.709-3.343 3.709-2.108 0-3.414-1.419-3.414-3.694 0-2.29 1.28-3.694 3.371-3.694M81.234 55.416c-.28-.17-.674-.253-1.11-.253-.715 0-1.303.24-1.712.717-.437.491-.59 1.011-.59 2.023 0 1.602.855 2.556 2.287 2.556.282 0 .563-.04.803-.11.478-.155.631-.338.631-.745v-3.541c0-.338-.083-.506-.309-.647zm.437 5.593a.512.512 0 0 0-.28.07l-.129.056c-.42.212-.912.309-1.447.309-2.05 0-3.371-1.407-3.371-3.585 0-2.162 1.403-3.678 3.386-3.678.493 0 1.011.11 1.305.308l.14.1c.1.055.128.07.24.055h.028v-2.936c0-.114.098-.212.211-.212h.885c.126 0 .21.098.21.212v9.413a.214.214 0 0 1-.21.21h-.73c-.126 0-.225-.099-.225-.239v-.084h-.013zM85.218 59.532c.702 0 .997.295.997.984 0 .647-.31.928-1.026.928-.69 0-.984-.295-.984-.971 0-.646.325-.941 1.013-.941M91.626 55.473c-.28-.197-.718-.31-1.209-.31-1.433 0-2.262.956-2.262 2.615 0 1.558.87 2.57 2.235 2.57.422 0 .871-.113 1.18-.268.238-.127.308-.253.308-.533V55.98c0-.28-.042-.365-.252-.506m.014 5.48a3.188 3.188 0 0 1-1.517.377c-2.01 0-3.346-1.404-3.346-3.51 0-2.152 1.434-3.64 3.5-3.64.421 0 .815.07 1.123.197.084.041.212.112.366.211.086.041.112.055.196.055l.058-.014v-.097c0-.168.07-.24.21-.24h.746c.126 0 .21.1.21.21v6.983c0 1.8-1.166 2.754-3.33 2.754-.8 0-1.729-.155-2.346-.409-.309-.125-.38-.195-.38-.392v-.59c0-.14.071-.238.183-.238a.46.46 0 0 1 .181.054l.185.1c.561.295 1.404.492 2.106.492.648 0 1.223-.142 1.602-.392.338-.24.491-.62.491-1.309v-.672c-.097 0-.112.012-.238.07M96.205 59.996c.308.38.828.59 1.445.59 1.337 0 1.996-.898 1.996-2.727 0-1.824-.659-2.71-2.007-2.71-1.35 0-1.996.87-1.996 2.74 0 1.04.154 1.615.562 2.107m1.434-5.816c2.121 0 3.385 1.377 3.385 3.68 0 2.29-1.278 3.709-3.343 3.709-2.109 0-3.413-1.419-3.413-3.694 0-2.29 1.277-3.694 3.371-3.694M106.467 54.432c.027-.084.11-.14.21-.14h.718c.153 0 .252.056.252.183 0 .027-.03.098-.057.197l-2.135 6.112c-.056.154-.125.351-.17.45-.097.167-.195.21-.517.21h-.591c-.394 0-.491-.07-.618-.422l-.071-.21-2.148-6.14a.472.472 0 0 1-.043-.183c0-.14.099-.198.323-.198h.887c.097 0 .165.057.194.141l1.883 5.732 1.883-5.732zM108.453 59.532c.703 0 .998.295.998.984 0 .647-.31.928-1.025.928-.69 0-.985-.295-.985-.971 0-.646.325-.941 1.012-.941M114.746 61.065l-.406.154a3.653 3.653 0 0 1-1.35.225c-1.517 0-2.43-.815-2.43-2.191v-4.75c0-.112.098-.211.211-.211h.898c.112 0 .212.099.212.21v4.342c0 .647.14 1.069.45 1.28.294.224.7.336 1.151.336.266 0 .575-.041.884-.125.507-.141.663-.311.663-.69v-5.142c0-.112.096-.211.21-.211h.9c.11 0 .208.099.208.21v6.62a.215.215 0 0 1-.208.209h-.76c-.127 0-.212-.084-.212-.225v-.113c-.17 0-.253.015-.42.072M119.363 57.075c.043 0 .1-.043.155-.084l2.528-2.56c.114-.124.14-.14.281-.14h.83c.141 0 .225.073.225.17 0 .085-.042.169-.14.266l-2.686 2.67 2.768 3.498c.1.114.127.184.127.254 0 .125-.084.182-.252.182h-.998c-.182 0-.266-.043-.393-.225l-2.236-2.992c-.082-.127-.11-.141-.222-.141h-.042v3.149a.208.208 0 0 1-.213.209h-.955a.215.215 0 0 1-.21-.21v-9.413c0-.113.097-.211.21-.211h.955c.127 0 .213.098.213.21v5.382l.055-.014z" fill="#6CB33F" /><path d="M60.532 9.897h3.465l-1.733-5.359-1.732 5.36zm5.367 5.845l-1.438-4.446h-4.414l-1.456 4.446a.294.294 0 0 1-.28.22h-1.134c-.106-.002-.19-.014-.262-.064a.266.266 0 0 1-.103-.223V15.6l.008-.017.074-.188 4.112-11.656.131-.362c.124-.422.354-.582.86-.563h.805c.343 0 .51.017.638.125.175.102.288.374.43.783l3.975 11.655.055.163c.035.057.023.103.028.136-.002.211-.208.286-.42.286h-1.31a.325.325 0 0 1-.299-.219zM70.563 11.629c-.75-.423-1.053-.643-1.365-.975-.443-.442-.663-1.047-.663-1.795.005-1.76 1.272-2.856 3.264-2.86.74 0 1.334.139 2.035.433.376.152.512.29.497.565v.882c0 .195-.103.383-.304.383-.127 0-.225-.053-.376-.147-.783-.457-1.193-.581-1.871-.582-.862.012-1.26.34-1.27 1.02.002.32.123.599.354.793.162.144.406.296.886.564l.729.422c.808.463 1.169.74 1.467 1.119.36.463.576 1.13.577 1.768-.004 1.763-1.35 2.894-3.377 2.896a6.06 6.06 0 0 1-2.264-.43c-.415-.15-.554-.295-.538-.605v-.826c0-.21.11-.4.324-.4a.524.524 0 0 1 .319.108c.738.436 1.389.62 2.062.62.975-.01 1.496-.426 1.5-1.134-.002-.501-.256-.863-.814-1.166l-.558-.307-.614-.346M76.756 2.333c.369-.001.667.101.87.307.202.205.298.502.298.862 0 .371-.096.669-.301.872-.207.202-.508.298-.888.298h-.004c-.37 0-.666-.102-.868-.31-.201-.208-.296-.508-.296-.88 0-.693.457-1.148 1.189-1.149zm-.616 13.629a.389.389 0 0 1-.382-.382V6.535a.388.388 0 0 1 .382-.381h1.21c.225 0 .381.182.381.381v9.045a.38.38 0 0 1-.381.382h-1.21zM82.897 11.521c-1.555.531-1.883.872-1.895 1.793.01.848.52 1.255 1.672 1.268.564 0 1.129-.113 1.572-.297.424-.218.49-.307.505-.875l-.002-2.537-1.851.648m-3.966 1.87c-.002-.896.444-1.68 1.233-2.173.664-.429 1.668-.873 2.69-1.2l1.399-.46c.418-.165.487-.238.497-.508v-.422c-.012-.77-.436-1.08-1.558-1.095-1.001-.002-2.143.287-2.827.713-.172.118-.27.154-.4.15a.357.357 0 0 1-.265-.098.349.349 0 0 1-.097-.265v-.768c-.006-.269.05-.45.235-.559.618-.385 2.337-.703 3.604-.706 1.068 0 1.893.222 2.454.678.564.456.849 1.144.846 2.027v6.875a.387.387 0 0 1-.383.38h-.98c-.135.002-.254-.03-.334-.117-.08-.088-.104-.205-.104-.34V15.5c-.166.003-.238.023-.444.108l-.345.151c-.483.221-1.292.353-1.92.355-1.936-.004-3.3-1.11-3.301-2.725M90.414 6.633c.156 0 .25-.03.523-.146.25-.096.38-.154.461-.174A5.143 5.143 0 0 1 93.2 6c1.055 0 1.926.319 2.531.904.608.587.944 1.436.942 2.474v6.202a.39.39 0 0 1-.382.382h-1.229a.387.387 0 0 1-.38-.382V9.647c-.018-1.466-.65-2.1-2.116-2.114-.47 0-.94.075-1.33.224-.538.215-.678.419-.688.892v6.93a.389.389 0 0 1-.382.383h-1.21a.39.39 0 0 1-.383-.382V6.535a.39.39 0 0 1 .383-.381h.941c.16 0 .276.015.366.098.084.09.091.203.093.342v.039h.06M97.639 7.686a.388.388 0 0 1-.383-.381v-.77a.39.39 0 0 1 .383-.38h.963V3.981c0-.2.155-.383.38-.383h1.21c.21.003.38.174.383.383v2.172h2.67a.388.388 0 0 1 .382.381v.77a.38.38 0 0 1-.382.38h-2.67v5.476c.017 1.033.363 1.405 1.289 1.42.33 0 .66-.072.93-.216l.224-.12a.728.728 0 0 1 .266-.065c.209 0 .343.181.343.402v.69c.013.2-.073.358-.261.43-.504.26-1.336.411-2.04.414-.854 0-1.538-.232-2.007-.672-.471-.44-.72-1.084-.717-1.88L98.6 7.685h-.961M108.012 11.521c-1.555.531-1.885.872-1.894 1.793.009.848.52 1.254 1.673 1.27.563 0 1.129-.116 1.57-.299.426-.218.493-.307.505-.875v-2.537l-1.852.648m-3.967 1.87c-.002-.895.442-1.68 1.235-2.173.664-.429 1.666-.872 2.689-1.202l1.4-.459c.418-.164.485-.237.495-.507v-.422c-.01-.77-.435-1.08-1.557-1.095-1.002-.002-2.143.285-2.828.713-.171.117-.268.153-.398.15a.364.364 0 0 1-.266-.098.36.36 0 0 1-.098-.264v-.769c-.006-.269.053-.45.237-.559.617-.386 2.337-.703 3.603-.706 1.069 0 1.89.222 2.453.678.564.456.849 1.144.846 2.027v6.875a.387.387 0 0 1-.381.381h-.98c-.137 0-.255-.032-.335-.12-.08-.086-.104-.203-.104-.339-.165.003-.24.021-.444.106l-.344.152c-.485.221-1.293.355-1.921.355-1.933-.004-3.3-1.11-3.302-2.725M119.757 9.821v-.098c-.003-1.315-.926-2.204-2.323-2.21-1.341.004-2.317.946-2.38 2.308h4.703zm-5.406 4.952c-.823-.863-1.275-2.104-1.275-3.609 0-1.572.422-2.863 1.19-3.763.771-.9 1.887-1.402 3.244-1.4 2.543.004 4.218 1.781 4.223 4.452v.518a.38.38 0 0 1-.382.381h-6.3v.023c.006 1.936 1.201 3.202 3.035 3.208.647.001 1.522-.265 2.281-.7l.139-.069a.555.555 0 0 1 .307-.096c.214 0 .364.188.364.402v.75c.017.32-.114.487-.479.623-.84.39-1.926.622-2.899.622-1.442 0-2.627-.479-3.448-1.342zM122.18 7.686a.391.391 0 0 1-.383-.381v-.77a.39.39 0 0 1 .383-.38h.963V3.981c0-.2.156-.383.38-.383h1.212a.39.39 0 0 1 .382.383v2.172h2.67a.387.387 0 0 1 .38.381v.77a.38.38 0 0 1-.38.381h-2.67v5.475c.018 1.032.364 1.405 1.287 1.421.33 0 .663-.074.934-.218l.22-.12a.728.728 0 0 1 .268-.064c.209 0 .342.181.342.402v.69c.015.2-.072.358-.26.43-.505.26-1.335.414-2.042.414-.851 0-1.536-.232-2.004-.672-.472-.44-.72-1.084-.72-1.882V7.688h-.962M135.498 15.962a.39.39 0 0 1-.383-.382V9.455c-.013-1.345-.64-1.925-2.133-1.941-.468 0-.86.074-1.272.224-.56.216-.717.419-.726.93v6.912a.38.38 0 0 1-.382.382h-1.209a.39.39 0 0 1-.383-.382V2.715a.39.39 0 0 1 .383-.382h1.21a.38.38 0 0 1 .381.382v3.918c.078-.008.168-.045.387-.145.814-.35 1.484-.488 2.228-.488 1.063 0 1.944.323 2.557.918.613.592.953 1.45.953 2.498v6.164a.39.39 0 0 1-.382.382h-1.229zM57.965 28.883c.098-.002.186.034.358.15.612.428 1.678.735 2.54.733 1.368-.007 2.185-.727 2.19-1.863 0-.317-.055-.61-.164-.863-.165-.345-.353-.538-1.005-1l-2.264-1.573c-.407-.271-.74-.546-.976-.82-.5-.54-.792-1.348-.794-2.196-.002-1.058.381-1.926 1.078-2.52.696-.595 1.699-.915 2.934-.915.953 0 2.017.193 2.765.526.213.073.309.208.285.45v1.096a.543.543 0 0 1-.047.27c-.043.08-.136.115-.218.11-.12.005-.203-.04-.363-.168a4.029 4.029 0 0 0-2.327-.732c-1.294.008-2.05.652-2.056 1.69.005.645.238 1.038 1.015 1.574l2.363 1.594c1.432.963 2.023 1.89 2.017 3.207-.005 2.245-1.713 3.682-4.337 3.686-.972-.002-2.128-.172-2.856-.468-.306-.101-.456-.246-.445-.491v-1.152c0-.17.12-.325.306-.325M70.072 26.725c-1.557.53-1.884.873-1.895 1.79.01.852.52 1.257 1.673 1.27a4.24 4.24 0 0 0 1.572-.297c.424-.218.488-.306.504-.874v-2.537l-1.854.647m-3.965 1.87c-.002-.896.443-1.68 1.233-2.172.664-.43 1.668-.874 2.691-1.201l1.398-.46c.418-.164.487-.237.497-.507l-.002-.424c-.01-.77-.434-1.078-1.557-1.094-1-.001-2.142.287-2.827.714-.17.117-.269.153-.398.15a.359.359 0 0 1-.265-.098.356.356 0 0 1-.099-.265v-.768c-.005-.27.051-.45.236-.56.616-.385 2.336-.702 3.603-.706 1.068 0 1.893.223 2.455.68.563.455.848 1.143.846 2.026v6.875a.388.388 0 0 1-.383.38h-.978c-.137 0-.256-.032-.337-.12-.08-.086-.102-.203-.102-.338v-.002c-.165.005-.24.023-.445.107l-.345.153c-.483.22-1.29.353-1.92.355-1.934-.002-3.298-1.11-3.3-2.725M76.559 31.164a.39.39 0 0 1-.383-.383v-7.892h-1.153a.39.39 0 0 1-.383-.382v-.768a.389.389 0 0 1 .383-.382h1.153v-1.001c-.002-1.14.24-1.803.882-2.3.536-.439 1.267-.673 1.997-.673.788.006 1.354.168 1.38.611v.787c0 .194-.095.38-.286.383a.584.584 0 0 1-.248-.065l-.172-.078a1.592 1.592 0 0 0-.52-.107c-.743.014-1.043.366-1.058 1.326l.015 1.115 1.772.002a.387.387 0 0 1 .383.382v.806a.335.335 0 0 1-.106.262.415.415 0 0 1-.277.082H78.15v7.892a.389.389 0 0 1-.382.383h-1.21zM83.108 29.186c.4.491 1.08.773 1.904.773 1.768-.01 2.619-1.15 2.633-3.63-.014-2.483-.864-3.605-2.65-3.613-1.79.01-2.62 1.11-2.633 3.65 0 1.415.209 2.17.746 2.82m1.887-7.983c1.468 0 2.656.479 3.468 1.364.815.887 1.252 2.17 1.252 3.761 0 1.582-.441 2.873-1.252 3.771-.806.898-1.976 1.392-3.408 1.392h-.004c-1.46.002-2.656-.494-3.482-1.39-.826-.895-1.277-2.181-1.277-3.755 0-1.581.44-2.867 1.256-3.762.814-.892 1.996-1.38 3.447-1.38M92.898 21.837c.156-.001.249-.032.522-.147.25-.097.379-.153.463-.175a5.127 5.127 0 0 1 1.799-.312c1.055 0 1.927.319 2.53.905.609.586.944 1.435.944 2.472v6.203a.389.389 0 0 1-.382.38h-1.23a.387.387 0 0 1-.381-.38V24.85c-.016-1.468-.65-2.101-2.114-2.117-.47 0-.941.077-1.331.226-.538.216-.678.419-.686.892v6.93a.39.39 0 0 1-.384.382h-1.21a.387.387 0 0 1-.381-.381v-9.045a.386.386 0 0 1 .38-.381h.94c.16 0 .278.014.366.099.086.088.093.2.095.34v.04h.06M104.19 26.724c-1.553.532-1.883.872-1.893 1.793.01.849.52 1.255 1.672 1.269.565 0 1.129-.114 1.572-.298.426-.218.49-.306.504-.875v-2.536l-1.852.647m-3.966 1.87c-.001-.896.442-1.68 1.233-2.172.665-.43 1.668-.874 2.69-1.201l1.399-.46c.42-.163.487-.237.496-.507l-.001-.422c-.01-.771-.434-1.08-1.557-1.095-.998-.002-2.142.286-2.826.713-.17.117-.27.153-.4.15a.359.359 0 0 1-.264-.098.349.349 0 0 1-.097-.265v-.77c-.006-.267.05-.448.233-.558.619-.385 2.337-.702 3.605-.706 1.069 0 1.89.223 2.455.68.563.455.847 1.143.845 2.026v6.875a.386.386 0 0 1-.381.38h-.98c-.138.002-.256-.031-.335-.12-.082-.086-.105-.203-.105-.34-.166.003-.238.023-.443.107l-.345.153c-.484.22-1.292.355-1.921.355-1.934-.004-3.297-1.11-3.301-2.725M110.678 30.502c-.592-.533-.914-1.312-.914-2.273v-6.49a.389.389 0 0 1 .383-.383h1.229a.39.39 0 0 1 .382.383v5.933c0 .873.19 1.41.577 1.672.38.29.917.442 1.517.442.355 0 .769-.056 1.185-.17.682-.204.82-.365.832-.85v-7.027a.39.39 0 0 1 .383-.383h1.23a.389.389 0 0 1 .38.383v9.044a.388.388 0 0 1-.38.38h-1.038c-.22 0-.381-.17-.381-.4v-.058c-.162.006-.26.026-.45.089l-.558.21c-.643.236-1.178.314-1.875.314-1.054 0-1.908-.283-2.502-.816M61.746 38.532c1.059-.004 1.347-.088 1.779-.53.382-.365.584-.894.584-1.488-.008-1.287-.736-2.048-1.96-2.056h-1.787v4.074h1.384zm.52 6.125c1.755-.012 2.6-.793 2.612-2.342-.013-1.611-.855-2.37-2.728-2.385h-1.788v4.727h1.905zm-3.648 1.398a.306.306 0 0 1-.307-.304V33.366a.307.307 0 0 1 .307-.305h3.743c1.243 0 2.216.28 2.882.834.668.555 1.015 1.38 1.014 2.428.008 1.434-.691 2.387-1.97 2.705.02.006.03.008.036.006.373.1.706.236 1.038.39 1.052.538 1.666 1.614 1.664 2.948 0 1.135-.42 2.064-1.186 2.703-.766.635-1.87.98-3.23.982l-3.991-.002zM74.375 38.49v-.003l-.064-.014.064.018zm1.728 6.903l-.193-.636-.424-1.633-.44-1.73-.442-1.921-.215-.925-.236.888-.462 1.846-.499 1.86c-.48 1.847-.647 2.456-.856 2.777-.133.203-.356.295-.693.29h-.865c-.462.014-.714-.185-.858-.68l-.114-.364-2.628-8.25a1.144 1.144 0 0 1-.085-.322c.001-.213.187-.346.421-.346h1.095c.337-.016.543.129.627.473l2.174 7.345.006-.027.366-1.5.654-2.383.421-1.533.288-1.074c.117-.448.234-.778.335-.985.12-.211.371-.316.68-.316h.806c.493-.02.721.178.84.705l.094.383.346 1.304.461 1.71c.307 1.21.498 1.96.577 2.25.181.798.29 1.226.307 1.345a5 5 0 0 1 .043.139l2.135-7.4c.061-.323.253-.454.534-.436h.806c.124 0 .223.019.301.082.077.066.101.164.1.264-.004.033.01.078-.029.138l-.052.139-2.495 8.023-.136.465c-.193.654-.429.867-.934.852h-.825c-.028.002-.055.002-.08.002-.493 0-.695-.198-.856-.82zM88.64 36.678c.089-.309.284-.445.57-.432h.806c.266 0 .497.07.497.305.002.098-.025.174-.081.303l-3.168 8.678-.403 1.134c-.367.983-.79 1.946-1.12 2.547-.366.666-.836.971-1.54.971H84.007c-.177-.002-.308-.016-.408-.096-.103-.086-.127-.213-.127-.363v-.71c0-.284.123-.517.383-.517h.174c.162-.007.223-.043.34-.244.187-.3.397-.736.587-1.269l.43-1.137-3.652-8.912c-.076-.17-.104-.246-.104-.344 0-.242.22-.346.477-.346h1.056c.325-.009.547.13.645.407l2.63 6.798 2.203-6.773M93.156 38.575c-.578.654-.779 1.326-.783 2.7.01 2.157 1.125 3.394 3.036 3.402.374 0 .75-.057 1.065-.151.64-.22.786-.398.798-.928l.001-4.837c-.008-.45-.096-.62-.379-.803-.36-.217-.884-.332-1.466-.332-.96.002-1.733.318-2.272.949m-1.574 6.27c-.822-.87-1.28-2.118-1.28-3.625.004-3 1.962-5.122 4.722-5.125.688 0 1.407.152 1.841.437l.183.13c.108.06.125.07.188.07h.036l.001-3.923a.385.385 0 0 1 .381-.382h1.21a.38.38 0 0 1 .383.382v12.866a.384.384 0 0 1-.383.38h-.998a.405.405 0 0 1-.4-.42v-.02a.6.6 0 0 0-.272.087l-.169.074c-.592.297-1.278.434-2.019.434-1.424 0-2.604-.49-3.424-1.364" fill="#006F51" /></g></symbol><symbol viewBox="0 0 200 79" id="logo-desktop-white"><title>logo-desktop</title><g fill-rule="nonzero" fill="none"><path d="M171.366 57.383c.126-.482.48-.74.922-.71h1.204c.216.003.392.02.549.1a.474.474 0 0 1 .266.44c.002.16-.044.293-.126.486l-4.735 13.303-.603 1.739c-.549 1.51-1.182 2.983-1.677 3.914-.547 1.03-1.282 1.525-2.354 1.525h-.304c-.267-.002-.48-.022-.656-.165-.178-.151-.214-.371-.214-.609V76.32c0-.442.202-.86.645-.863h.257c.22-.014.27-.036.448-.34.279-.451.585-1.12.876-1.934l.625-1.72-5.442-13.632c-.114-.262-.162-.393-.162-.558a.538.538 0 0 1 .242-.47c.155-.096.337-.126.543-.128h1.577c.501-.019.886.223 1.034.67l3.859 10.228 3.226-10.187" fill="#FFF" /><path d="M19.43 63.461l-.064-39.509c0-1.58.924-2.862 2.074-2.87 1.052 0 1.914 1.063 2.066 2.451l.04 31.998c.01 1.585.942 2.866 2.082 2.866 1.108.002 2.005-1.184 2.076-2.675v-.036c0-.053.006-.107.006-.161l-.049-31.738c.05-1.51.956-2.718 2.064-2.72.948.002 1.751.885 2.002 2.085l-.014-6.607h-.026C31.667 10.33 35.537 3.109 40.98.15a38.922 38.922 0 0 0-27.673 10.71C-2.471 25.794-3.216 50.75 11.635 66.613a38.933 38.933 0 0 0 13.163 9.238c-2.773-3.148-4.34-6.925-5.151-10.354-.092-.4-.216-1.575-.216-2.037" fill="#6CB33F" /><path d="M60.733 15.982l.066 39.505c.002 1.584-.93 2.865-2.074 2.867-1.046.002-1.908-1.062-2.058-2.448l-.05-31.997c-.006-1.587-.94-2.863-2.088-2.873-1.1.01-1.997 1.199-2.067 2.69v.026c0 .056-.006.113 0 .161l.046 31.744c-.058 1.515-.964 2.713-2.07 2.717-.954.002-1.751-.884-2.004-2.083l.042 6.537.012.063c.006 6.019-3.614 12.985-8.791 16.115 9.813.121 19.68-3.418 27.397-10.72 15.766-14.932 16.51-39.89 1.661-55.753a39.16 39.16 0 0 0-13.961-9.57c3.083 3.199 5.227 7.715 5.728 11.75.13.379.21.806.21 1.27" fill="#BED9A8" /><path d="M40.981.152c-5.444 2.957-9.313 10.177-9.307 16.397l.016.029.038 6.575.052 32.368c.006 1.583.94 2.869 2.084 2.86.818 0 1.519-.652 1.854-1.601.014-.014.018-.02.018-.034.04-.133.084-.27.11-.415 0-.039.02-.073.028-.113.018-.123.03-.248.042-.377.006-.107.022-.207.02-.312l-.022-31.153.008-.625c.048-1.092.55-2.014 1.234-2.433.022-.008.034-.025.046-.035a.416.416 0 0 0 .06-.026c.227-.127.487-.197.754-.201.977 0 1.797.942 2.025 2.201l.022.162c.02.163.002.348.014.517l.05 32.074c.17 1.34 1.022 2.365 2.048 2.357.265.002.515-.072.748-.195.012 0 .024 0 .032-.002.02-.02.032-.04.06-.054.717-.448 1.21-1.447 1.21-2.603l-.012-31.349.018-.431c0-.042.012-.09.016-.133a2.46 2.46 0 0 1 .046-.373c.004-.038.018-.074.022-.115a3.98 3.98 0 0 1 .11-.423l.014-.028c.333-.96 1.038-1.621 1.862-1.615 1.148-.006 2.081 1.28 2.081 2.864l.053 32.384c.252 1.197 1.05 2.075 2.003 2.08 1.106-.005 2.012-1.201 2.07-2.714l-.046-31.742c-.006-.054 0-.11 0-.167v-.026c.07-1.497.968-2.677 2.068-2.687 1.146.01 2.081 1.283 2.087 2.872l.05 32c.15 1.382 1.01 2.451 2.058 2.447 1.144-.002 2.074-1.283 2.074-2.868l-.066-39.512c0-.457-.036-.93-.094-1.374-.604-4.022-2.761-8.444-5.845-11.64A39.015 39.015 0 0 0 40.981.153" fill="#006F51" /><path d="M39.696 79.006c5.441-2.957 8.807-9.935 8.801-16.156l-.016-.03-.038-6.573-.048-32.368c-.008-1.581-.943-2.869-2.088-2.86-.817 0-1.516.652-1.85 1.6a.04.04 0 0 0-.019.037c-.042.13-.082.27-.112.411 0 .042-.016.077-.026.117-.022.12-.03.246-.042.379-.006.104-.026.205-.02.308l.026 31.155-.012.625c-.046 1.09-.551 2.012-1.236 2.431-.022.01-.035.026-.047.037a.171.171 0 0 0-.058.026 1.623 1.623 0 0 1-.751.201c-.978 0-1.801-.945-2.028-2.206l-.022-.159c-.018-.165-.002-.346-.01-.515l-.056-32.075c-.168-1.341-1.022-2.367-2.046-2.358-.264 0-.514.074-.747.197-.012 0-.024 0-.032.004-.022.018-.036.036-.058.052-.717.45-1.214 1.447-1.214 2.599l.01 31.353-.016.431c0 .042-.01.09-.016.13-.004.132-.022.257-.046.376-.002.038-.014.072-.02.114a3.312 3.312 0 0 1-.115.423l-.012.027c-.336.96-1.04 1.621-1.859 1.62-1.15.001-2.08-1.286-2.08-2.87l-.056-32.384c-.25-1.196-1.05-2.072-2.001-2.079-1.106.007-2.014 1.203-2.068 2.714l.044 31.742c.006.056 0 .108 0 .165v.026c-.072 1.499-.972 2.683-2.068 2.69-1.146-.007-2.082-1.286-2.088-2.873l-.048-31.998c-.154-1.382-1.011-2.453-2.06-2.445-1.143 0-2.077 1.28-2.077 2.864l.068 39.512c0 .459.036.932.1 1.375.6 4.021 2.18 7.863 5.26 11.056 4.42 1.775 10.19 3.066 14.897 3.152M89.873 26.972a.538.538 0 0 1-.529-.538V7.448a.536.536 0 0 1 .53-.538H99.8a.55.55 0 0 1 .56.538v1.473a.563.563 0 0 1-.56.536h-7.247v5.606h5.81a.537.537 0 0 1 .531.538v1.442a.54.54 0 0 1-.53.538h-5.811v8.853a.537.537 0 0 1-.531.538h-2.15zM107.29 11.559c2.211 0 4.009.743 5.24 2.119 1.23 1.374 1.89 3.358 1.89 5.81 0 2.437-.665 4.433-1.89 5.825-1.22 1.39-2.989 2.158-5.142 2.158h-.008c-2.202.002-4.014-.766-5.262-2.152-1.25-1.387-1.927-3.378-1.927-5.803 0-2.438.665-4.428 1.895-5.812 1.23-1.386 3.02-2.145 5.203-2.145m-2.759 12.268c.581.735 1.571 1.156 2.791 1.156 2.593-.018 3.83-1.7 3.86-5.495-.03-3.796-1.263-5.447-3.892-5.468-2.626.02-3.827 1.64-3.863 5.526.004 2.164.315 3.298 1.102 4.28M122.933 11.559c2.21 0 4.005.743 5.235 2.119 1.235 1.374 1.89 3.358 1.89 5.81 0 2.437-.662 4.433-1.886 5.825-1.22 1.39-2.993 2.158-5.145 2.158h-.012c-2.198.002-4.01-.766-5.256-2.152-1.248-1.387-1.927-3.378-1.927-5.803 0-2.438.661-4.428 1.893-5.812 1.227-1.386 3.02-2.145 5.208-2.145m-2.765 12.268c.583.735 1.575 1.156 2.79 1.156 2.596-.018 3.834-1.7 3.86-5.495-.026-3.796-1.26-5.447-3.885-5.468-2.63.02-3.833 1.64-3.865 5.526.002 2.164.31 3.298 1.1 4.28M133.456 25.097c-1.24-1.353-1.932-3.29-1.932-5.61.01-4.623 2.961-7.917 7.133-7.927 1.036.004 2.12.234 2.789.687l.273.198c.148.084.166.094.224.096V6.593a.658.658 0 0 1 .645-.655h1.805c.381 0 .644.318.644.655v19.723a.656.656 0 0 1-.644.657h-1.488c-.365 0-.645-.294-.672-.665a.86.86 0 0 0-.304.113l-.25.115c-.898.459-1.936.67-3.054.67-2.14.002-3.931-.757-5.17-2.109zm5.802-11.047c-1.418.002-2.547.477-3.342 1.426-.847.99-1.146 1.993-1.152 4.102.02 3.281 1.653 5.124 4.464 5.143a5.52 5.52 0 0 0 1.57-.228c.943-.34 1.12-.566 1.145-1.356V15.72c-.014-.679-.132-.9-.529-1.172-.525-.323-1.292-.498-2.148-.498h-.008zM88.896 45.774c.17-.002.328.066.583.246.893.642 2.48 1.112 3.75 1.11 2.016-.018 3.19-1.084 3.202-2.79 0-.474-.082-.919-.234-1.292-.246-.52-.511-.8-1.485-1.506l-3.38-2.414c-.615-.417-1.116-.84-1.472-1.267-.762-.844-1.2-2.097-1.205-3.41-.002-1.64.575-2.99 1.633-3.914 1.056-.929 2.573-1.425 4.434-1.425 1.435.003 3.03.297 4.162.816.322.097.52.385.469.754v1.68c-.002.173-.006.31-.078.445-.079.147-.259.216-.395.21-.19.006-.349-.081-.58-.274a5.827 5.827 0 0 0-3.435-1.112c-1.91.02-2.99.969-3.002 2.524.012.965.339 1.535 1.487 2.355l3.528 2.443c2.15 1.479 3.058 2.933 3.048 4.974 0 1.732-.643 3.177-1.792 4.174-1.148.997-2.789 1.547-4.76 1.547-1.465-.002-3.192-.264-4.294-.721-.46-.147-.737-.423-.713-.818v-1.765c.004-.282.21-.568.529-.57M100.797 36.725a.66.66 0 0 1-.643-.655v-1.178a.661.661 0 0 1 .643-.657h1.367v-3.26a.651.651 0 0 1 .645-.654h1.805c.357.006.64.296.643.654v3.26h3.92a.67.67 0 0 1 .646.657v1.178c0 .38-.31.653-.647.655l-3.919-.002v8.325c.04 1.568.503 2.073 1.851 2.112a2.88 2.88 0 0 0 1.363-.327l.339-.187c.158-.065.292-.107.422-.107a.548.548 0 0 1 .44.208c.103.13.151.298.151.479v1.058c.024.314-.136.614-.434.719-.772.41-2.018.642-3.082.644-1.288 0-2.328-.36-3.047-1.047-.722-.693-1.098-1.7-1.096-2.937v-8.938h-1.367M110.944 45.398c-.004-1.39.672-2.616 1.872-3.384 1.006-.665 2.504-1.344 4.04-1.85l2.087-.704c.62-.258.671-.325.695-.711V38.1c-.026-1.146-.589-1.575-2.256-1.61-1.479-.004-3.178.438-4.184 1.08-.248.18-.43.25-.635.244a.605.605 0 0 1-.449-.171.61.61 0 0 1-.164-.454v-1.178c-.016-.413.08-.737.38-.919.955-.604 3.515-1.083 5.425-1.091 1.607 0 2.855.344 3.716 1.057.858.715 1.29 1.795 1.287 3.16v10.536a.653.653 0 0 1-.641.657h-1.461c-.218 0-.42-.052-.56-.205-.12-.137-.163-.309-.171-.496-.187.008-.289.038-.561.151l-.515.236c-.74.344-1.95.546-2.904.548-2.915-.004-4.997-1.727-5-4.247m6.018-2.798c-2.322.826-2.757 1.3-2.78 2.683.021 1.266.72 1.844 2.426 1.876.83 0 1.667-.171 2.316-.451.619-.337.683-.41.713-1.277v-3.79l-2.669.957M127.625 34.97c.222 0 .345-.041.757-.219.37-.147.563-.235.692-.266a7.593 7.593 0 0 1 2.714-.485c1.59-.002 2.914.496 3.837 1.41.92.913 1.43 2.232 1.429 3.84v9.504a.66.66 0 0 1-.645.656h-1.838a.654.654 0 0 1-.643-.656V39.66c-.034-2.228-.92-3.137-3.085-3.173-.698 0-1.39.115-1.96.338-.793.33-.966.594-.986 1.304v10.624a.655.655 0 0 1-.64.656h-1.81a.658.658 0 0 1-.643-.656V34.89a.66.66 0 0 1 .643-.654h1.404c.245.004.441.018.596.177.148.157.162.348.164.558h.014M140.676 47.537c-1.238-1.354-1.928-3.288-1.928-5.609.008-4.625 2.964-7.918 7.133-7.926 1.034.004 2.118.231 2.79.684l.274.196c.144.084.162.095.222.099v-5.947a.66.66 0 0 1 .645-.657h1.806a.65.65 0 0 1 .645.657v19.72a.66.66 0 0 1-.645.658h-1.491c-.365 0-.647-.294-.673-.665a.89.89 0 0 0-.303.115l-.248.115c-.898.46-1.936.669-3.052.669-2.144.002-3.93-.754-5.175-2.11zm5.806-11.048c-1.418.004-2.55.476-3.344 1.429-.841.989-1.146 1.992-1.152 4.1.022 3.283 1.653 5.126 4.468 5.142.55 0 1.106-.085 1.57-.23.943-.34 1.115-.56 1.143-1.353v-7.418c-.014-.676-.132-.9-.53-1.172-.52-.322-1.291-.498-2.147-.498h-.008zM153.729 45.398c-.004-1.39.675-2.616 1.875-3.384 1-.665 2.505-1.344 4.037-1.85l2.09-.704c.62-.258.673-.325.691-.711V38.1c-.024-1.146-.589-1.575-2.254-1.61-1.478-.004-3.18.438-4.183 1.08-.253.18-.431.25-.635.244a.614.614 0 0 1-.453-.171.636.636 0 0 1-.167-.454v-1.178c-.008-.413.087-.737.39-.919.949-.604 3.511-1.083 5.42-1.091 1.608 0 2.858.344 3.716 1.057.86.715 1.294 1.795 1.29 3.16v10.536a.657.657 0 0 1-.643.657h-1.463c-.216 0-.419-.052-.557-.205-.12-.137-.164-.309-.172-.496-.187.008-.289.038-.563.151l-.511.236c-.741.344-1.95.546-2.903.548-2.918-.004-5-1.727-5.005-4.247m6.02-2.798c-2.32.826-2.758 1.3-2.783 2.683.023 1.266.724 1.844 2.429 1.876.831 0 1.667-.171 2.316-.451.62-.337.685-.41.711-1.277v-3.79l-2.669.957M168.089 49.411a.654.654 0 0 1-.642-.656V34.89a.655.655 0 0 1 .642-.657h1.462c.2 0 .387.043.523.176.14.135.178.32.178.51v.281c.155-.008.253-.04.525-.177 1.16-.596 1.942-.792 3.14-.79.511.004.854.037 1.116.196.275.163.363.47.355.785v1.326c0 .35-.217.713-.611.715-.054-.004-.149.006-.26-.04l-.131-.024a10.23 10.23 0 0 0-1.908-.204c-1.677.05-2.04.327-2.081 1.525v10.242c0 .338-.247.654-.613.656h-1.695zM177.246 47.537c-1.245-1.354-1.932-3.288-1.932-5.609.01-4.625 2.962-7.918 7.127-7.926 1.038.004 2.12.231 2.795.684l.273.196c.142.084.162.095.22.099v-5.947a.661.661 0 0 1 .645-.657h1.807c.38 0 .642.319.644.657v19.72a.661.661 0 0 1-.644.658h-1.49c-.363 0-.647-.294-.671-.665a.875.875 0 0 0-.305.113l-.246.117c-.902.46-1.938.669-3.054.669-2.146.002-3.933-.754-5.17-2.11zm5.8-11.048c-1.418.004-2.55.476-3.34 1.429-.847.989-1.148 1.992-1.156 4.1.026 3.283 1.653 5.126 4.466 5.142a5.4 5.4 0 0 0 1.57-.23c.943-.34 1.119-.56 1.143-1.353v-7.418c-.012-.676-.128-.9-.529-1.172-.523-.322-1.288-.498-2.148-.498h-.006zM193.298 42.76c-1.122-.646-1.585-.99-2.052-1.509-.675-.693-1.01-1.641-1.007-2.8-.002-1.357.472-2.486 1.34-3.26.866-.775 2.104-1.19 3.604-1.19 1.118-.002 2.018.214 3.076.665.557.222.815.492.783.93v1.357c-.002.308-.174.654-.53.656-.213-.002-.375-.094-.596-.24-1.168-.694-1.757-.874-2.759-.878-1.266.028-1.805.486-1.825 1.49 0 .476.174.883.503 1.17.232.21.595.442 1.312.855l1.09.647c1.209.71 1.762 1.14 2.214 1.733.551.725.874 1.758.874 2.75 0 1.359-.501 2.505-1.405 3.293-.901.788-2.182 1.217-3.714 1.217-1.2 0-2.264-.212-3.41-.663-.616-.216-.884-.506-.848-.99v-1.266c.004-.176.032-.337.128-.474a.515.515 0 0 1 .431-.215.826.826 0 0 1 .51.181c1.095.66 2.057.94 3.048.94 1.435-.021 2.156-.626 2.168-1.671-.006-.742-.36-1.267-1.182-1.727l-.833-.469-.92-.532M100.687 71.468L98.555 64.7h-6.492l-2.162 6.77a.502.502 0 0 1-.485.379H87.72c-.162 0-.304-.016-.435-.107a.474.474 0 0 1-.176-.399v-.128l.012-.037.112-.288 6.141-17.868.199-.556c.172-.659.59-.953 1.352-.915h1.202c.511 0 .788.028 1.026.232.283.197.43.608.64 1.213l5.94 17.868.074.244c.07.11.046.187.052.235a.467.467 0 0 1-.232.411c-.136.079-.289.095-.467.095h-1.963c-.23 0-.427-.163-.51-.38zm-7.857-9.05h4.985l-2.492-7.912-2.493 7.911zM105.2 77.075c-.626-.232-.93-.534-.906-1.024v-1.234c.004-.349.202-.716.589-.716.184.002.337.079.475.145l.37.202c1.103.6 2.81 1.01 4.2 1.007 1.292.002 2.43-.29 3.15-.784.613-.45.911-1.146.917-2.562v-1.156c-.042.016-.094.042-.186.084-1.082.568-2.096.814-3.192.814-2.1.002-3.873-.757-5.107-2.09-1.236-1.332-1.933-3.23-1.933-5.484 0-2.297.747-4.26 2.05-5.647 1.298-1.39 3.147-2.191 5.309-2.191.884 0 1.713.15 2.392.439.179.09.443.242.746.439.126.064.154.083.206.089v-.014c0-.206.038-.385.162-.528.123-.14.305-.19.48-.188h1.518a.65.65 0 0 1 .65.653V71.96c0 1.93-.62 3.445-1.824 4.464-1.202 1.017-2.952 1.521-5.194 1.521-1.66 0-3.57-.324-4.872-.87m8.363-17.538c-.52-.379-1.369-.61-2.34-.606-2.812.016-4.386 1.849-4.406 5.26.014 3.19 1.687 5.16 4.347 5.17.824.002 1.72-.225 2.309-.533.442-.264.5-.367.522-.931V60.42c-.026-.582-.028-.582-.426-.882M120.824 70.008c-1.243-1.34-1.924-3.261-1.924-5.582 0-2.423.633-4.415 1.795-5.811 1.162-1.4 2.856-2.178 4.901-2.176 1.914 0 3.525.685 4.64 1.9 1.12 1.212 1.744 2.937 1.744 4.996v.795a.65.65 0 0 1-.645.659h-9.34c.03 2.917 1.778 4.798 4.465 4.808.948.003 2.248-.394 3.376-1.065l.194-.097a.867.867 0 0 1 .505-.159c.367 0 .615.33.615.683v1.15c.036.498-.208.824-.757 1.017-1.266.603-2.895.96-4.364.961-2.168 0-3.965-.743-5.205-2.079zm8.06-7.709v-.08c-.01-1.983-1.346-3.306-3.398-3.32-1.943.008-3.356 1.384-3.48 3.4h6.878zM136.532 57.412c.216-.002.344-.042.755-.22.37-.147.56-.235.691-.267a7.609 7.609 0 0 1 2.713-.484c1.593-.002 2.917.494 3.837 1.408.922.913 1.427 2.234 1.427 3.84v9.508a.654.654 0 0 1-.64.655h-1.839a.652.652 0 0 1-.641-.655V62.1c-.038-2.226-.924-3.135-3.09-3.169-.693-.002-1.388.115-1.961.338-.79.329-.962.595-.98 1.298v10.63a.661.661 0 0 1-.645.655h-1.807a.655.655 0 0 1-.644-.655V57.332a.658.658 0 0 1 .644-.657h1.404c.245.004.439.024.597.175.147.161.159.35.163.562h.016M159.26 68.48c.365.008.583.354.583.745v1.177c.024.382-.156.693-.489.838-1.028.525-2.703.844-4.227.846-2.297.002-4.156-.713-5.428-2.059-1.28-1.342-1.96-3.298-1.96-5.719 0-2.413.734-4.388 2.082-5.755 1.35-1.366 3.298-2.116 5.68-2.116 1.26 0 2.525.244 3.687.752.42.13.677.413.655.761v1.382c0 .35-.2.713-.583.713-.19.004-.323-.06-.563-.201-1.19-.665-2.082-.913-3.254-.913-2.875.02-4.44 1.821-4.466 5.26.026 3.495 1.655 5.39 4.524 5.409 1.02 0 2.076-.284 3.104-.87l.12-.047c.184-.125.35-.2.535-.203" fill="#FFF" /></g></symbol><symbol viewBox="0 0 18 24" id="arrow-icon"><title>Page 1</title><path d="M.36 14.619l7.269 8.822c.286.349.706.552 1.149.559.443.003.873-.184 1.171-.528l7.665-8.823a1.592 1.592 0 0 0-.13-2.212 1.514 1.514 0 0 0-2.164.133l-4.948 5.694V1.85C10.372.83 9.684 0 8.84 0c-.846 0-1.534.83-1.534 1.85v16.332L2.707 12.6a1.513 1.513 0 0 0-2.161-.19 1.562 1.562 0 0 0-.54 1.065c-.035.418.09.823.354 1.144" fill="#00A39B" fill-rule="evenodd" /></symbol><symbol viewBox="0 0 36 36" id="help-centre-icon"><title>Page 1</title><path d="M29.907 6.096A17.387 17.387 0 0 0 17.52.963c-4.68 0-9.08 1.82-12.387 5.133A17.387 17.387 0 0 0 0 18.483c0 4.68 1.823 9.08 5.133 12.387A17.399 17.399 0 0 0 17.52 36c4.68 0 9.08-1.823 12.387-5.13a17.405 17.405 0 0 0 5.133-12.387c0-4.681-1.821-9.08-5.133-12.387zm-.52 23.263l-4.515-4.514a9.724 9.724 0 0 0 0-12.726l4.515-4.514a15.998 15.998 0 0 1 4.249 10.88c.004 4.068-1.512 7.898-4.25 10.874zM17.52 26.851A8.316 8.316 0 0 1 11.6 24.4c-3.265-3.265-3.265-8.576 0-11.838a8.324 8.324 0 0 1 5.92-2.45c2.236 0 4.339.87 5.92 2.45 3.263 3.265 3.263 8.576 0 11.838a8.316 8.316 0 0 1-5.92 2.452zm10.878-20.24l-4.512 4.512c-1.774-1.535-3.994-2.414-6.365-2.414-2.372 0-4.59.876-6.366 2.414L6.644 6.616c2.978-2.735 6.808-4.25 10.877-4.25 4.071-.002 7.9 1.512 10.877 4.245zm-22.749.994l4.514 4.514a9.724 9.724 0 0 0 0 12.726L5.65 29.36C2.914 26.381 1.4 22.551 1.4 18.482c0-4.071 1.516-7.9 4.25-10.877zM17.52 34.602c-4.07 0-7.9-1.514-10.877-4.249l4.512-4.511c1.774 1.537 3.991 2.414 6.365 2.414 2.372 0 4.591-.877 6.365-2.414l4.512 4.511c-2.976 2.733-6.806 4.25-10.877 4.25z" fill="#00A39B" fill-rule="evenodd" /></symbol><symbol viewBox="0 0 22 14" id="arrow-back"><title>Page 1</title><path d="M8.214.289a.945.945 0 0 1 .293.675.945.945 0 0 1-.293.675l-4.45 4.385h17.258c.538 0 .978.434.978.964s-.44.964-.978.964H3.764l4.449 4.385a.95.95 0 0 1 0 1.374.983.983 0 0 1-1.394 0L0 6.988l6.82-6.7a.986.986 0 0 1 1.394 0z" fill="#00A39B" fill-rule="evenodd" /></symbol><symbol viewBox="0 0 18 21" id="calendar-icon"><title>Page 1</title><path d="M2.02 20.957h13.96c1.11 0 2.02-.907 2.02-2.015V4.862c0-1.109-.91-2.016-2.02-2.016h-2.17v-.882c0-.553-.455-1.007-1.01-1.007-.556 0-1.01.454-1.01 1.007v.882H6.21v-.882c0-.553-.454-1.007-1.01-1.007-.555 0-1.01.454-1.01 1.007v.882H2.02C.91 2.846 0 3.753 0 4.861v14.056a2.03 2.03 0 0 0 2.02 2.04zm0-2.015v-8.515h13.96v8.489H2.02v.026zm2.17-14.08v1.385c0 .554.456 1.007 1.01 1.007.556 0 1.01-.453 1.01-1.007V4.86h5.604v1.386c0 .554.455 1.007 1.01 1.007.555 0 1.01-.453 1.01-1.007V4.86h2.171v3.552H2.021V4.86h2.17z" fill="#00A39B" fill-rule="evenodd" /></symbol><symbol viewBox="0 0 20 14" id="menu-icon"><title>Group</title><g fill-rule="nonzero" fill="#007c75"><path d="M1 0h18a1 1 0 0 1 0 2H1a1 1 0 1 1 0-2zM1 6h18a1 1 0 0 1 0 2H1a1 1 0 1 1 0-2zM1 12h18a1 1 0 0 1 0 2H1a1 1 0 0 1 0-2z" /></g></symbol><symbol viewBox="0 0 16 16" id="search-icon"><title>Fill 1</title><path d="M7 12a5 5 0 0 1-5-5 5 5 0 0 1 5-5 5 5 0 0 1 5 5 5 5 0 0 1-5 5m8.707 2.293l-3.106-3.106A6.961 6.961 0 0 0 14 7a7 7 0 1 0-7 7 6.959 6.959 0 0 0 4.187-1.399l3.106 3.106a.999.999 0 1 0 1.414-1.414" fill="#FFF" fill-rule="evenodd" /></symbol><symbol viewBox="0 0 10 6" id="toggle-icon"><path d="M5 6L0 0h10z" fill="#18262C" fill-rule="evenodd" /></symbol><symbol viewBox="0 0 40 40" id="Facebook_icon"><title>Facebook_White</title><path d="M0 20C0 8.954 8.954 0 20 0s20 8.954 20 20-8.954 20-20 20S0 31.046 0 20zm21.418 11.093V20.212h3.004l.398-3.75h-3.402l.005-1.877c0-.978.093-1.502 1.498-1.502h1.877v-3.75h-3.004c-3.608 0-4.878 1.82-4.878 4.878v2.252h-2.25v3.75h2.25v10.88h4.502z" fill="#007C75" fill-rule="evenodd" /></symbol><symbol viewBox="0 0 40 40" id="Instagram_icon"><title>Instagram_White</title><g fill="none" fill-rule="evenodd"><path d="M0 20C0 8.954 8.954 0 20 0s20 8.954 20 20-8.954 20-20 20S0 31.046 0 20z" fill="#007C75" /><path d="M20.001 9.333c-2.897 0-3.26.013-4.398.065-1.136.052-1.911.232-2.59.495a5.223 5.223 0 0 0-1.889 1.23 5.236 5.236 0 0 0-1.23 1.89c-.265.678-.445 1.453-.496 2.589-.051 1.137-.065 1.501-.065 4.398s.013 3.26.065 4.397c.052 1.136.232 1.911.495 2.59a5.227 5.227 0 0 0 1.23 1.889 5.223 5.223 0 0 0 1.89 1.23c.678.265 1.453.444 2.589.496 1.138.052 1.501.065 4.398.065s3.26-.013 4.397-.065c1.136-.052 1.912-.231 2.59-.495a5.219 5.219 0 0 0 1.889-1.231 5.236 5.236 0 0 0 1.23-1.89c.263-.678.443-1.453.496-2.589.051-1.137.065-1.5.065-4.397 0-2.897-.014-3.26-.065-4.398-.053-1.136-.233-1.91-.495-2.59a5.235 5.235 0 0 0-1.231-1.889 5.213 5.213 0 0 0-1.89-1.23c-.68-.263-1.455-.443-2.59-.495-1.138-.052-1.5-.065-4.398-.065H20z" fill="#007C75" /><path d="M19.044 11.256h.957c2.848 0 3.186.01 4.31.06 1.04.048 1.605.222 1.98.368.499.194.853.425 1.227.798.373.373.604.729.798 1.227.146.375.32.94.367 1.98.051 1.124.062 1.462.062 4.309 0 2.846-.01 3.184-.062 4.309-.047 1.04-.221 1.604-.367 1.98a3.298 3.298 0 0 1-.798 1.225 3.299 3.299 0 0 1-1.226.798c-.376.146-.94.32-1.98.367-1.125.051-1.463.063-4.311.063s-3.186-.012-4.31-.063c-1.04-.048-1.605-.221-1.981-.367a3.304 3.304 0 0 1-1.227-.798 3.306 3.306 0 0 1-.798-1.226c-.146-.376-.32-.94-.367-1.98-.051-1.125-.062-1.463-.062-4.311s.01-3.184.062-4.309c.047-1.04.221-1.604.367-1.98.193-.498.425-.854.798-1.227a3.31 3.31 0 0 1 1.227-.798c.376-.147.94-.32 1.98-.368.985-.045 1.366-.058 3.354-.06v.003z" fill="#FFF" /><path d="M25.695 13.027a1.28 1.28 0 1 0 0 2.56 1.28 1.28 0 0 0 0-2.56z" fill="#007C75" /><path d="M20.001 14.522a5.478 5.478 0 1 0 0 10.956 5.478 5.478 0 0 0 0-10.956z" fill="#FFF" /><path d="M23.557 20a3.556 3.556 0 1 1-7.112 0 3.556 3.556 0 0 1 7.112 0z" fill="#007C75" /></g></symbol><symbol viewBox="0 0 40 40" id="LinkedIN_icon"><title>LinkedIN_White</title><path d="M0 20C0 8.954 8.954 0 20 0s20 8.954 20 20-8.954 20-20 20S0 31.046 0 20zm14.134-3.435H9.6v13.618h4.533V16.565zm.298-4.213c-.03-1.335-.984-2.352-2.534-2.352-1.551 0-2.565 1.017-2.565 2.352 0 1.308.984 2.354 2.506 2.354h.029c1.58 0 2.564-1.046 2.564-2.354zM30.48 22.375c0-4.183-2.235-6.13-5.218-6.13-2.406 0-3.484 1.322-4.085 2.25v-1.93h-4.533c.06 1.278 0 13.618 0 13.618h4.533v-7.605c0-.407.029-.813.149-1.105.327-.813 1.073-1.654 2.325-1.654 1.641 0 2.297 1.248 2.297 3.078v7.286h4.532v-7.808z" fill="#007C75" fill-rule="evenodd" /></symbol><symbol viewBox="0 0 41 40" id="Youtube_icon"><title>Youtube_White</title><g fill="#007C75" fill-rule="evenodd"><path d="M0 20C0 8.954 8.967 0 20.029 0s20.029 8.954 20.029 20-8.967 20-20.03 20C8.969 40 0 31.046 0 20zm30.453-4.026s-.208-1.502-.848-2.163c-.811-.87-1.72-.873-2.137-.924-2.985-.22-7.463-.22-7.463-.22h-.01s-4.478 0-7.463.22c-.417.05-1.326.055-2.138.924-.64.661-.847 2.163-.847 2.163s-.214 1.765-.214 3.529v1.654c0 1.764.214 3.528.214 3.528s.208 1.502.847 2.164c.812.868 1.878.841 2.353.932C14.453 27.948 20 28 20 28s4.483-.007 7.468-.228c.417-.05 1.326-.055 2.137-.923.64-.662.848-2.164.848-2.164s.214-1.764.214-3.528v-1.654c0-1.764-.214-3.529-.214-3.529z" /><path d="M18 23.459v-6.126l5.764 3.074z" /></g></symbol><symbol viewBox="0 0 40 40" id="Twitter_icon"><title>Twitter_White</title><path d="M0 20C0 8.954 8.954 0 20 0s20 8.954 20 20-8.954 20-20 20S0 31.046 0 20zm19.401-3.744l.042.692-.7-.084c-2.546-.325-4.77-1.427-6.659-3.277l-.923-.918-.238.678c-.503 1.511-.182 3.107.868 4.18.56.594.433.678-.532.325-.336-.113-.63-.198-.657-.155-.098.099.237 1.384.503 1.892.364.707 1.105 1.399 1.917 1.808l.685.325-.811.014c-.784 0-.812.014-.728.31.28.919 1.385 1.893 2.616 2.317l.868.297-.756.452a7.876 7.876 0 0 1-3.749 1.045c-.63.014-1.147.07-1.147.113 0 .141 1.707.932 2.7 1.243 2.98.918 6.52.522 9.177-1.046 1.889-1.115 3.777-3.333 4.659-5.48.475-1.143.951-3.234.951-4.236 0-.65.042-.735.825-1.512.462-.452.896-.946.98-1.087.14-.268.126-.268-.588-.028-1.189.423-1.357.367-.77-.269.434-.452.952-1.27.952-1.51 0-.043-.21.027-.448.154-.252.142-.811.354-1.23.48l-.756.24-.686-.465c-.377-.255-.91-.537-1.189-.622-.713-.198-1.805-.17-2.448.057-1.749.635-2.854 2.274-2.728 4.067z" fill="#007C75" fill-rule="evenodd" /></symbol></defs><use id="safari-pinned-tab-usage" xlink:href="#safari-pinned-tab" class="sprite-symbol-usage" /><use id="logo-desktop-en-usage" xlink:href="#logo-desktop-en" class="sprite-symbol-usage" /><use id="logo-desktop-cy-usage" xlink:href="#logo-desktop-cy" class="sprite-symbol-usage" /><use id="logo-desktop-white-usage" xlink:href="#logo-desktop-white" class="sprite-symbol-usage" /><use id="arrow-icon-usage" xlink:href="#arrow-icon" class="sprite-symbol-usage" /><use id="help-centre-icon-usage" xlink:href="#help-centre-icon" class="sprite-symbol-usage" /><use id="arrow-back-usage" xlink:href="#arrow-back" class="sprite-symbol-usage" /><use id="calendar-icon-usage" xlink:href="#calendar-icon" class="sprite-symbol-usage" /><use id="menu-icon-usage" xlink:href="#menu-icon" class="sprite-symbol-usage" /><use id="search-icon-usage" xlink:href="#search-icon" class="sprite-symbol-usage" /><use id="toggle-icon-usage" xlink:href="#toggle-icon" class="sprite-symbol-usage" /><use id="Facebook_icon-usage" xlink:href="#Facebook_icon" class="sprite-symbol-usage" /><use id="Instagram_icon-usage" xlink:href="#Instagram_icon" class="sprite-symbol-usage" /><use id="LinkedIN_icon-usage" xlink:href="#LinkedIN_icon" class="sprite-symbol-usage" /><use id="Youtube_icon-usage" xlink:href="#Youtube_icon" class="sprite-symbol-usage" /><use id="Twitter_icon-usage" xlink:href="#Twitter_icon" class="sprite-symbol-usage" /></svg>