<?xml version="1.0" encoding="UTF-8"?>
<svg width="138px" height="65px" viewBox="0 0 138 65" version="1.1" xmlns="http://www.w3.org/2000/svg" xmlns:xlink="http://www.w3.org/1999/xlink">
    <!-- Generator: Sketch 46.2 (44496) - http://www.bohemiancoding.com/sketch -->
    <title>FSA_Wales_Food</title>
    <desc>Created with Sketch.</desc>
    <defs></defs>
    <g id="Page-1" stroke="none" stroke-width="1" fill="none" fill-rule="evenodd">
        <g id="Desktop-HD" transform="translate(-651.000000, -480.000000)">
            <g id="FSA_Wales_Food" transform="translate(651.000000, 480.000000)">
                <path d="M12.1818,41.5512 L12.1398,15.6242 C12.1398,14.5882 12.7508,13.7452 13.5098,13.7402 C14.2028,13.7402 14.7728,14.4392 14.8708,15.3482 L14.8978,36.3482 C14.9028,37.3892 15.5198,38.2312 16.2718,38.2292 C17.0018,38.2312 17.5948,37.4532 17.6418,36.4732 L17.6418,36.4492 C17.6418,36.4142 17.6438,36.3792 17.6438,36.3422 L17.6138,15.5152 C17.6468,14.5232 18.2438,13.7332 18.9758,13.7312 C19.6008,13.7332 20.1308,14.3102 20.2958,15.0992 L20.2888,10.7632 L20.2688,10.7632 C20.2588,6.6832 22.8098,1.9462 26.4018,0.0062 C19.8658,-0.1318 13.2788,2.1952 8.1418,7.0332 C-2.2692,16.8342 -2.7592,33.2112 7.0378,43.6212 C9.5638,46.3052 12.5318,48.3242 15.7248,49.6842 C13.8958,47.6172 12.8618,45.1392 12.3268,42.8872 C12.2658,42.6252 12.1828,41.8562 12.1818,41.5512" id="Fill-1" fill="#6CB33F"></path>
                <path d="M39.4332,10.3945 L39.4772,36.3185 C39.4782,37.3595 38.8652,38.1995 38.1102,38.2015 C37.4182,38.2035 36.8522,37.5025 36.7502,36.5965 L36.7172,15.5965 C36.7132,14.5545 36.0972,13.7175 35.3412,13.7115 C34.6172,13.7175 34.0222,14.4975 33.9762,15.4765 L33.9762,15.4945 C33.9762,15.5305 33.9722,15.5665 33.9762,15.5995 L34.0072,36.4325 C33.9712,37.4245 33.3712,38.2115 32.6412,38.2135 C32.0122,38.2155 31.4852,37.6355 31.3192,36.8465 L31.3472,41.1355 L31.3552,41.1785 C31.3572,45.1295 28.9702,49.6995 25.5542,51.7545 C32.0312,51.8345 38.5382,49.5085 43.6312,44.7175 C54.0342,34.9185 54.5232,18.5395 44.7272,8.1305 C42.0602,5.3025 38.9062,3.2075 35.5162,1.8515 C37.5492,3.9495 38.9642,6.9145 39.2962,9.5615 C39.3812,9.8095 39.4332,10.0895 39.4332,10.3945" id="Fill-3" fill="#BED9A8"></path>
                <path d="M26.402,0.0058 C22.81,1.9458 20.258,6.6838 20.263,10.7668 L20.271,10.7848 L20.296,15.0998 L20.33,36.3418 C20.334,37.3808 20.952,38.2228 21.706,38.2188 C22.245,38.2188 22.708,37.7918 22.929,37.1688 C22.939,37.1608 22.941,37.1528 22.941,37.1448 C22.968,37.0588 22.996,36.9668 23.015,36.8738 C23.015,36.8458 23.027,36.8248 23.032,36.7988 C23.046,36.7188 23.051,36.6368 23.06,36.5508 C23.064,36.4808 23.075,36.4168 23.072,36.3478 L23.058,15.9018 L23.064,15.4918 C23.095,14.7758 23.427,14.1698 23.88,13.8968 C23.894,13.8908 23.901,13.8788 23.909,13.8728 C23.927,13.8668 23.932,13.8648 23.947,13.8558 C24.098,13.7718 24.27,13.7268 24.446,13.7238 C25.09,13.7238 25.632,14.3418 25.781,15.1688 L25.796,15.2748 C25.808,15.3818 25.798,15.5028 25.806,15.6138 L25.839,36.6628 C25.95,37.5418 26.513,38.2148 27.188,38.2098 C27.363,38.2118 27.528,38.1608 27.683,38.0808 C27.691,38.0808 27.699,38.0808 27.704,38.0788 C27.718,38.0668 27.727,38.0548 27.743,38.0438 C28.215,37.7508 28.542,37.0938 28.542,36.3388 L28.535,15.7638 L28.547,15.4818 C28.547,15.4528 28.553,15.4218 28.557,15.3928 C28.559,15.3108 28.572,15.2258 28.587,15.1488 C28.59,15.1228 28.598,15.0998 28.603,15.0738 C28.619,14.9818 28.646,14.8848 28.675,14.7948 L28.684,14.7768 C28.904,14.1468 29.368,13.7128 29.911,13.7168 C30.67,13.7128 31.284,14.5588 31.284,15.5968 L31.319,36.8498 C31.485,37.6348 32.012,38.2118 32.641,38.2138 C33.371,38.2118 33.971,37.4238 34.007,36.4318 L33.976,15.6028 C33.972,15.5668 33.976,15.5298 33.976,15.4938 L33.976,15.4768 C34.023,14.4938 34.617,13.7178 35.341,13.7118 C36.097,13.7178 36.714,14.5548 36.717,15.5968 L36.751,36.5958 C36.852,37.5028 37.419,38.2058 38.11,38.2018 C38.865,38.1998 39.478,37.3598 39.478,36.3188 L39.433,10.3918 C39.433,10.0898 39.41,9.7798 39.37,9.4878 C38.973,6.8498 37.549,3.9468 35.516,1.8518 C32.601,0.6858 29.507,0.0628 26.402,0.0058" id="Fill-5" fill="#006F51"></path>
                <path d="M25.5543,51.7544 C29.1433,49.8134 31.3653,45.2344 31.3603,41.1524 L31.3513,41.1314 L31.3263,36.8184 L31.2933,15.5764 C31.2893,14.5384 30.6713,13.6944 29.9163,13.6994 C29.3783,13.6994 28.9153,14.1274 28.6943,14.7504 C28.6843,14.7574 28.6823,14.7654 28.6823,14.7734 C28.6553,14.8594 28.6283,14.9504 28.6083,15.0454 C28.6083,15.0724 28.5973,15.0934 28.5913,15.1194 C28.5783,15.1994 28.5723,15.2814 28.5643,15.3684 C28.5583,15.4374 28.5473,15.5034 28.5513,15.5714 L28.5663,36.0164 L28.5583,36.4264 C28.5293,37.1434 28.1953,37.7484 27.7453,38.0224 C27.7303,38.0294 27.7213,38.0394 27.7143,38.0474 C27.6973,38.0514 27.6893,38.0534 27.6763,38.0634 C27.5253,38.1474 27.3543,38.1914 27.1793,38.1954 C26.5333,38.1954 25.9903,37.5764 25.8423,36.7484 L25.8263,36.6454 C25.8153,36.5354 25.8253,36.4164 25.8193,36.3054 L25.7843,15.2564 C25.6733,14.3774 25.1103,13.7034 24.4343,13.7094 C24.2593,13.7074 24.0943,13.7564 23.9423,13.8374 C23.9323,13.8374 23.9253,13.8374 23.9203,13.8394 C23.9053,13.8514 23.8963,13.8644 23.8803,13.8754 C23.4073,14.1704 23.0803,14.8244 23.0803,15.5804 L23.0883,36.1544 L23.0763,36.4384 C23.0763,36.4654 23.0713,36.4964 23.0653,36.5254 C23.0633,36.6094 23.0513,36.6934 23.0363,36.7704 C23.0343,36.7954 23.0263,36.8184 23.0213,36.8444 C23.0043,36.9364 22.9773,37.0334 22.9473,37.1234 L22.9393,37.1414 C22.7193,37.7724 22.2543,38.2054 21.7123,38.2014 C20.9543,38.2054 20.3393,37.3614 20.3393,36.3224 L20.3033,15.0684 C20.1383,14.2844 19.6113,13.7074 18.9823,13.7044 C18.2523,13.7074 17.6523,14.4944 17.6173,15.4864 L17.6473,36.3164 C17.6503,36.3524 17.6473,36.3874 17.6473,36.4244 L17.6473,36.4414 C17.6003,37.4244 17.0063,38.2014 16.2823,38.2054 C15.5263,38.2014 14.9083,37.3634 14.9043,36.3224 L14.8723,15.3224 C14.7703,14.4164 14.2043,13.7124 13.5143,13.7174 C12.7603,13.7184 12.1453,14.5584 12.1453,15.5974 L12.1903,41.5274 C12.1903,41.8284 12.2123,42.1394 12.2543,42.4304 C12.6483,45.0684 13.6923,47.5884 15.7243,49.6844 C18.6403,50.8504 22.4483,51.6974 25.5543,51.7544" id="Fill-7" fill="#FFFFFF"></path>
                <path d="M59.6183,61.1215 C59.6183,61.2325 59.5203,61.3305 59.4083,61.3305 L58.5233,61.3305 C58.4113,61.3305 58.3113,61.2325 58.3113,61.1215 L58.3113,55.2755 L57.3983,55.2755 C57.2853,55.2755 57.1873,55.1785 57.1873,55.0645 L57.1873,54.5025 C57.1873,54.3915 57.2853,54.2915 57.3983,54.2915 L58.3113,54.2915 L58.3113,53.4905 C58.3113,52.6625 58.4803,52.2135 58.9293,51.8615 C59.3093,51.5515 59.8293,51.3855 60.3493,51.3855 C60.9253,51.3855 61.2903,51.5235 61.2903,51.7645 L61.2903,52.3405 C61.2903,52.4675 61.2343,52.5495 61.1493,52.5495 C61.1083,52.5495 61.0523,52.5355 60.9963,52.5085 L60.8693,52.4515 C60.7703,52.4105 60.6013,52.3675 60.4603,52.3675 C59.8863,52.3675 59.6183,52.6895 59.6183,53.4065 L59.6333,54.2915 L60.9963,54.2915 C61.1083,54.2915 61.2063,54.3915 61.2063,54.5025 L61.2063,55.0925 C61.2063,55.2195 61.1363,55.2755 60.9963,55.2755 L59.6183,55.2755 L59.6183,61.1215 Z" id="Fill-9" fill="#6CB33F"></path>
                <path d="M63.3585,59.9965 C63.6675,60.3755 64.1855,60.5865 64.8045,60.5865 C66.1395,60.5865 66.7995,59.6875 66.7995,57.8595 C66.7995,56.0355 66.1395,55.1485 64.7905,55.1485 C63.4425,55.1485 62.7955,56.0195 62.7955,57.8895 C62.7955,58.9285 62.9515,59.5045 63.3585,59.9965 M64.7905,54.1805 C66.9135,54.1805 68.1775,55.5575 68.1775,57.8595 C68.1775,60.1505 66.8985,61.5685 64.8325,61.5685 C62.7245,61.5685 61.4195,60.1505 61.4195,57.8755 C61.4195,55.5845 62.6985,54.1805 64.7905,54.1805" id="Fill-11" fill="#6CB33F"></path>
                <path d="M70.8712,59.9965 C71.1802,60.3755 71.6992,60.5865 72.3182,60.5865 C73.6522,60.5865 74.3122,59.6875 74.3122,57.8595 C74.3122,56.0355 73.6522,55.1485 72.3032,55.1485 C70.9552,55.1485 70.3092,56.0195 70.3092,57.8895 C70.3092,58.9285 70.4632,59.5045 70.8712,59.9965 M72.3032,54.1805 C74.4242,54.1805 75.6892,55.5575 75.6892,57.8595 C75.6892,60.1505 74.4102,61.5685 72.3462,61.5685 C70.2382,61.5685 68.9322,60.1505 68.9322,57.8755 C68.9322,55.5845 70.2112,54.1805 72.3032,54.1805" id="Fill-13" fill="#6CB33F"></path>
                <path d="M81.2345,55.4165 C80.9535,55.2465 80.5595,55.1625 80.1245,55.1625 C79.4095,55.1625 78.8205,55.4025 78.4115,55.8795 C77.9755,56.3715 77.8215,56.8915 77.8215,57.9025 C77.8215,59.5045 78.6775,60.4595 80.1095,60.4595 C80.3905,60.4595 80.6715,60.4185 80.9125,60.3485 C81.3905,60.1935 81.5435,60.0105 81.5435,59.6035 L81.5435,56.0625 C81.5435,55.7255 81.4605,55.5575 81.2345,55.4165 L81.2345,55.4165 Z M81.6705,61.0085 C81.5725,61.0085 81.4885,61.0215 81.3905,61.0785 L81.2625,61.1355 C80.8415,61.3465 80.3495,61.4435 79.8155,61.4435 C77.7645,61.4435 76.4435,60.0375 76.4435,57.8595 C76.4435,55.6975 77.8475,54.1805 79.8305,54.1805 C80.3225,54.1805 80.8415,54.2915 81.1355,54.4885 L81.2755,54.5885 C81.3755,54.6435 81.4035,54.6585 81.5155,54.6435 L81.5435,54.6435 L81.5435,51.7075 C81.5435,51.5945 81.6415,51.4965 81.7545,51.4965 L82.6395,51.4965 C82.7645,51.4965 82.8495,51.5945 82.8495,51.7075 L82.8495,61.1215 C82.8495,61.2325 82.7525,61.3305 82.6395,61.3305 L81.9085,61.3305 C81.7835,61.3305 81.6845,61.2325 81.6845,61.0925 L81.6845,61.0085 L81.6705,61.0085 Z" id="Fill-15" fill="#6CB33F"></path>
                <path d="M85.2179,59.5317 C85.9199,59.5317 86.2149,59.8267 86.2149,60.5157 C86.2149,61.1627 85.9049,61.4437 85.1889,61.4437 C84.4999,61.4437 84.2049,61.1487 84.2049,60.4727 C84.2049,59.8267 84.5299,59.5317 85.2179,59.5317" id="Fill-17" fill="#6CB33F"></path>
                <path d="M91.6261,55.4731 C91.3461,55.2761 90.9081,55.1621 90.4171,55.1621 C88.9841,55.1621 88.1551,56.1191 88.1551,57.7781 C88.1551,59.3361 89.0251,60.3481 90.3901,60.3481 C90.8121,60.3481 91.2611,60.2351 91.5701,60.0801 C91.8081,59.9531 91.8781,59.8271 91.8781,59.5471 L91.8781,55.9791 C91.8781,55.6981 91.8361,55.6141 91.6261,55.4731 M91.6401,60.9521 C91.1211,61.2191 90.6431,61.3301 90.1231,61.3301 C88.1131,61.3301 86.7771,59.9261 86.7771,57.8191 C86.7771,55.6681 88.2111,54.1801 90.2761,54.1801 C90.6981,54.1801 91.0921,54.2501 91.4001,54.3771 C91.4841,54.4181 91.6121,54.4891 91.7661,54.5881 C91.8521,54.6291 91.8781,54.6431 91.9621,54.6431 L92.0201,54.6291 L92.0201,54.5321 C92.0201,54.3641 92.0901,54.2911 92.2301,54.2911 L92.9761,54.2911 C93.1021,54.2911 93.1861,54.3911 93.1861,54.5021 L93.1861,61.4851 C93.1861,63.2841 92.0201,64.2391 89.8551,64.2391 C89.0551,64.2391 88.1271,64.0841 87.5101,63.8301 C87.2011,63.7051 87.1291,63.6351 87.1291,63.4381 L87.1291,62.8481 C87.1291,62.7071 87.2011,62.6101 87.3131,62.6101 C87.3691,62.6101 87.4391,62.6371 87.4941,62.6641 L87.6791,62.7641 C88.2401,63.0591 89.0831,63.2561 89.7851,63.2561 C90.4331,63.2561 91.0081,63.1141 91.3871,62.8641 C91.7251,62.6231 91.8781,62.2441 91.8781,61.5551 L91.8781,60.8831 C91.7811,60.8831 91.7661,60.8951 91.6401,60.9521" id="Fill-19" fill="#6CB33F"></path>
                <path d="M96.2052,59.9965 C96.5132,60.3755 97.0332,60.5865 97.6502,60.5865 C98.9872,60.5865 99.6462,59.6875 99.6462,57.8595 C99.6462,56.0355 98.9872,55.1485 97.6392,55.1485 C96.2892,55.1485 95.6432,56.0195 95.6432,57.8895 C95.6432,58.9285 95.7972,59.5045 96.2052,59.9965 M97.6392,54.1805 C99.7602,54.1805 101.0242,55.5575 101.0242,57.8595 C101.0242,60.1505 99.7462,61.5685 97.6812,61.5685 C95.5722,61.5685 94.2682,60.1505 94.2682,57.8755 C94.2682,55.5845 95.5452,54.1805 97.6392,54.1805" id="Fill-22" fill="#6CB33F"></path>
                <path d="M106.4669,54.4321 C106.4939,54.3481 106.5779,54.2911 106.6779,54.2911 L107.3949,54.2911 C107.5479,54.2911 107.6469,54.3481 107.6469,54.4751 C107.6469,54.5021 107.6169,54.5731 107.5899,54.6721 L105.4549,60.7841 C105.3989,60.9381 105.3299,61.1351 105.2859,61.2331 C105.1879,61.4011 105.0899,61.4441 104.7679,61.4441 L104.1769,61.4441 C103.7829,61.4441 103.6859,61.3731 103.5589,61.0221 L103.4879,60.8111 L101.3399,54.6721 C101.3109,54.6021 101.2969,54.5451 101.2969,54.4891 C101.2969,54.3481 101.3959,54.2911 101.6199,54.2911 L102.5069,54.2911 C102.6039,54.2911 102.6719,54.3481 102.7009,54.4321 L104.5839,60.1641 L106.4669,54.4321 Z" id="Fill-24" fill="#6CB33F"></path>
                <path d="M108.4533,59.5317 C109.1563,59.5317 109.4513,59.8267 109.4513,60.5157 C109.4513,61.1627 109.1403,61.4437 108.4263,61.4437 C107.7363,61.4437 107.4413,61.1487 107.4413,60.4727 C107.4413,59.8267 107.7663,59.5317 108.4533,59.5317" id="Fill-26" fill="#6CB33F"></path>
                <path d="M114.7462,61.0649 L114.3402,61.2189 C113.8752,61.3869 113.4962,61.4439 112.9902,61.4439 C111.4732,61.4439 110.5592,60.6289 110.5592,59.2529 L110.5592,54.5029 C110.5592,54.3909 110.6582,54.2919 110.7712,54.2919 L111.6692,54.2919 C111.7812,54.2919 111.8812,54.3909 111.8812,54.5029 L111.8812,58.8439 C111.8812,59.4909 112.0202,59.9129 112.3302,60.1239 C112.6252,60.3479 113.0312,60.4599 113.4822,60.4599 C113.7482,60.4599 114.0572,60.4189 114.3662,60.3349 C114.8732,60.1939 115.0292,60.0239 115.0292,59.6449 L115.0292,54.5029 C115.0292,54.3909 115.1252,54.2919 115.2382,54.2919 L116.1392,54.2919 C116.2482,54.2919 116.3472,54.3909 116.3472,54.5029 L116.3472,61.1219 C116.3472,61.2329 116.2482,61.3309 116.1392,61.3309 L115.3792,61.3309 C115.2522,61.3309 115.1672,61.2469 115.1672,61.1059 L115.1672,60.9929 C114.9972,60.9929 114.9142,61.0079 114.7462,61.0649" id="Fill-28" fill="#6CB33F"></path>
                <path d="M119.3634,57.0747 C119.4064,57.0747 119.4624,57.0317 119.5184,56.9907 L122.0464,54.4317 C122.1604,54.3067 122.1864,54.2917 122.3274,54.2917 L123.1564,54.2917 C123.2984,54.2917 123.3824,54.3637 123.3824,54.4617 C123.3824,54.5457 123.3404,54.6297 123.2414,54.7267 L120.5564,57.3967 L123.3244,60.8947 C123.4244,61.0087 123.4514,61.0787 123.4514,61.1487 C123.4514,61.2737 123.3674,61.3307 123.1994,61.3307 L122.2014,61.3307 C122.0194,61.3307 121.9354,61.2877 121.8084,61.1057 L119.5724,58.1137 C119.4904,57.9867 119.4624,57.9727 119.3504,57.9727 L119.3084,57.9727 L119.3084,61.1217 C119.3084,61.2327 119.2224,61.3307 119.0954,61.3307 L118.1404,61.3307 C118.0274,61.3307 117.9294,61.2327 117.9294,61.1217 L117.9294,51.7077 C117.9294,51.5947 118.0274,51.4967 118.1404,51.4967 L119.0954,51.4967 C119.2224,51.4967 119.3084,51.5947 119.3084,51.7077 L119.3084,57.0887 L119.3634,57.0747 Z" id="Fill-30" fill="#6CB33F"></path>
                <path d="M60.5324,9.8974 L63.9974,9.8974 L62.2644,4.5384 L60.5324,9.8974 Z M65.8994,15.7424 L64.4614,11.2964 L60.0474,11.2964 L58.5914,15.7424 C58.5534,15.8864 58.4254,15.9594 58.3114,15.9614 L57.1774,15.9614 C57.0714,15.9604 56.9864,15.9484 56.9154,15.8984 C56.8424,15.8474 56.8114,15.7574 56.8124,15.6754 L56.8124,15.6184 L56.8124,15.5994 L56.8204,15.5824 L56.8944,15.3944 L61.0064,3.7384 L61.1374,3.3764 C61.2614,2.9544 61.4914,2.7944 61.9974,2.8134 L62.8024,2.8134 C63.1454,2.8134 63.3124,2.8304 63.4404,2.9384 C63.6154,3.0404 63.7284,3.3124 63.8704,3.7214 L67.8454,15.3764 L67.9004,15.5394 C67.9354,15.5964 67.9234,15.6424 67.9284,15.6754 C67.9264,15.8864 67.7204,15.9614 67.5074,15.9614 L66.2004,15.9614 L66.1984,15.9614 C66.0624,15.9614 65.9494,15.8714 65.8994,15.7424 L65.8994,15.7424 Z" id="Fill-32" fill="#006F51"></path>
                <path d="M70.5626,11.6289 C69.8126,11.2059 69.5096,10.9859 69.1976,10.6539 C68.7546,10.2119 68.5346,9.6069 68.5346,8.8589 C68.5396,7.0989 69.8066,6.0029 71.7986,5.9999 C72.5396,5.9999 73.1326,6.1379 73.8336,6.4319 C74.2096,6.5839 74.3456,6.7229 74.3306,6.9969 L74.3306,7.8789 C74.3306,8.0739 74.2276,8.2619 74.0266,8.2619 C73.8996,8.2619 73.8016,8.2089 73.6506,8.1149 C72.8676,7.6579 72.4576,7.5339 71.7796,7.5329 C70.9176,7.5449 70.5196,7.8739 70.5096,8.5529 C70.5116,8.8739 70.6326,9.1519 70.8636,9.3459 C71.0256,9.4899 71.2696,9.6419 71.7496,9.9099 L72.4786,10.3319 C73.2866,10.7949 73.6476,11.0719 73.9456,11.4509 C74.3066,11.9139 74.5216,12.5809 74.5226,13.2189 C74.5186,14.9819 73.1736,16.1129 71.1456,16.1149 C70.3476,16.1149 69.6426,15.9789 68.8816,15.6859 C68.4666,15.5349 68.3276,15.3899 68.3436,15.0799 L68.3436,14.2539 C68.3436,14.0449 68.4536,13.8539 68.6676,13.8539 C68.7776,13.8519 68.8736,13.8849 68.9866,13.9619 C69.7246,14.3979 70.3756,14.5819 71.0486,14.5829 C72.0236,14.5729 72.5446,14.1559 72.5486,13.4479 C72.5466,12.9469 72.2926,12.5849 71.7346,12.2819 L71.1766,11.9749 L70.5626,11.6289" id="Fill-34" fill="#006F51"></path>
                <path d="M76.756,2.333 C77.125,2.332 77.423,2.434 77.626,2.64 C77.828,2.845 77.924,3.142 77.924,3.502 C77.924,3.873 77.828,4.171 77.623,4.374 C77.416,4.576 77.115,4.672 76.735,4.672 L76.731,4.672 C76.361,4.672 76.065,4.57 75.863,4.362 C75.662,4.154 75.567,3.854 75.567,3.482 C75.567,2.789 76.024,2.334 76.756,2.333 L76.756,2.333 Z M76.14,15.962 C75.931,15.959 75.76,15.788 75.758,15.58 L75.758,6.535 C75.76,6.328 75.931,6.156 76.14,6.154 L77.35,6.154 C77.575,6.154 77.731,6.336 77.731,6.535 L77.731,15.58 C77.731,15.779 77.575,15.961 77.35,15.962 L76.14,15.962 Z" id="Fill-36" fill="#006F51"></path>
                <path d="M82.8966,11.5214 L82.8966,11.5214 C81.3416,12.0524 81.0136,12.3934 81.0016,13.3144 C81.0116,14.1624 81.5216,14.5694 82.6736,14.5824 C83.2376,14.5824 83.8026,14.4694 84.2456,14.2854 C84.6696,14.0674 84.7356,13.9784 84.7506,13.4104 L84.7486,10.8734 L82.8976,11.5214 M78.9316,13.3904 C78.9296,12.4954 79.3756,11.7114 80.1646,11.2184 C80.8286,10.7894 81.8326,10.3454 82.8556,10.0174 L84.2536,9.5584 C84.6716,9.3934 84.7406,9.3204 84.7506,9.0504 L84.7506,8.6284 C84.7386,7.8584 84.3146,7.5484 83.1926,7.5334 C82.1916,7.5314 81.0496,7.8204 80.3656,8.2464 C80.1936,8.3644 80.0956,8.4004 79.9666,8.3964 C79.8636,8.3974 79.7676,8.3674 79.7006,8.2984 C79.6316,8.2324 79.6016,8.1364 79.6036,8.0334 L79.6036,7.2654 C79.5976,6.9964 79.6546,6.8154 79.8386,6.7064 C80.4566,6.3214 82.1756,6.0034 83.4426,6.0004 C84.5106,6.0004 85.3356,6.2224 85.8966,6.6784 C86.4606,7.1344 86.7456,7.8224 86.7426,8.7054 L86.7426,15.5804 C86.7406,15.7884 86.5686,15.9584 86.3596,15.9604 L85.3806,15.9604 C85.2446,15.9624 85.1256,15.9294 85.0456,15.8434 C84.9666,15.7554 84.9416,15.6384 84.9416,15.5024 L84.9416,15.5014 C84.7756,15.5044 84.7036,15.5244 84.4976,15.6094 L84.1526,15.7604 C83.6696,15.9814 82.8606,16.1134 82.2336,16.1154 C80.2966,16.1114 78.9336,15.0054 78.9316,13.3904" id="Fill-38" fill="#006F51"></path>
                <path d="M90.4142,6.6328 C90.5702,6.6328 90.6642,6.6028 90.9372,6.4868 C91.1862,6.3908 91.3162,6.3328 91.3982,6.3128 C91.9862,6.0978 92.5732,5.9998 93.1992,5.9998 C94.2542,5.9998 95.1252,6.3188 95.7302,6.9038 C96.3382,7.4908 96.6742,8.3398 96.6722,9.3778 L96.6722,15.5798 C96.6702,15.7878 96.4982,15.9588 96.2902,15.9618 L95.0612,15.9618 C94.8512,15.9588 94.6822,15.7878 94.6802,15.5798 L94.6802,9.6468 C94.6632,8.1808 94.0312,7.5468 92.5652,7.5328 C92.0942,7.5328 91.6252,7.6078 91.2342,7.7568 C90.6972,7.9718 90.5572,8.1758 90.5472,8.6488 L90.5472,15.5798 C90.5452,15.7878 90.3742,15.9588 90.1652,15.9618 L88.9552,15.9618 C88.7462,15.9588 88.5762,15.7878 88.5722,15.5798 L88.5722,6.5348 C88.5762,6.3268 88.7462,6.1558 88.9552,6.1538 L89.8962,6.1538 C90.0552,6.1538 90.1722,6.1688 90.2622,6.2518 C90.3462,6.3418 90.3532,6.4548 90.3552,6.5938 L90.3552,6.6328 L90.4142,6.6328" id="Fill-40" fill="#006F51"></path>
                <path d="M97.6388,7.6855 C97.4298,7.6835 97.2578,7.5125 97.2558,7.3045 L97.2558,6.5355 C97.2598,6.3275 97.4298,6.1565 97.6388,6.1545 L98.6018,6.1545 L98.6018,3.9825 C98.6018,3.7825 98.7568,3.5995 98.9828,3.5995 L100.1928,3.5995 C100.4018,3.6025 100.5728,3.7735 100.5748,3.9825 L100.5748,6.1545 L103.2448,6.1545 C103.4528,6.1565 103.6238,6.3275 103.6268,6.5355 L103.6268,7.3045 C103.6258,7.5295 103.4448,7.6855 103.2448,7.6855 L100.5748,7.6855 L100.5748,13.1605 C100.5918,14.1935 100.9378,14.5665 101.8638,14.5815 C102.1948,14.5815 102.5248,14.5085 102.7948,14.3645 L103.0178,14.2445 C103.1208,14.2035 103.2038,14.1795 103.2838,14.1795 C103.4928,14.1795 103.6268,14.3615 103.6268,14.5815 L103.6268,15.2725 C103.6398,15.4715 103.5538,15.6305 103.3658,15.7015 C102.8618,15.9615 102.0298,16.1135 101.3258,16.1165 C100.4718,16.1165 99.7878,15.8845 99.3188,15.4435 C98.8478,15.0035 98.5998,14.3605 98.6018,13.5635 L98.5998,7.6855 L97.6388,7.6855" id="Fill-42" fill="#006F51"></path>
                <path d="M108.0119,11.5214 L108.0119,11.5214 C106.4569,12.0524 106.1269,12.3934 106.1179,13.3144 C106.1269,14.1624 106.6389,14.5684 107.7909,14.5834 C108.3539,14.5834 108.9199,14.4684 109.3619,14.2854 C109.7869,14.0674 109.8539,13.9784 109.8659,13.4104 L109.8659,10.8734 L108.0139,11.5214 M104.0469,13.3904 C104.0449,12.4964 104.4889,11.7104 105.2819,11.2184 C105.9459,10.7894 106.9479,10.3464 107.9709,10.0164 L109.3709,9.5574 C109.7889,9.3934 109.8559,9.3204 109.8659,9.0504 L109.8659,8.6284 C109.8559,7.8584 109.4309,7.5484 108.3089,7.5334 C107.3069,7.5314 106.1659,7.8184 105.4809,8.2464 C105.3099,8.3634 105.2129,8.3994 105.0829,8.3964 C104.9809,8.3974 104.8849,8.3664 104.8169,8.2984 C104.7479,8.2304 104.7189,8.1364 104.7189,8.0344 L104.7189,7.2654 C104.7129,6.9964 104.7719,6.8154 104.9559,6.7064 C105.5729,6.3204 107.2929,6.0034 108.5589,6.0004 C109.6279,6.0004 110.4499,6.2224 111.0119,6.6784 C111.5759,7.1344 111.8609,7.8224 111.8579,8.7054 L111.8579,15.5804 C111.8559,15.7884 111.6859,15.9584 111.4769,15.9614 L110.4979,15.9614 C110.3599,15.9614 110.2419,15.9294 110.1619,15.8414 C110.0819,15.7554 110.0579,15.6384 110.0579,15.5024 L110.0579,15.5014 C109.8929,15.5054 109.8189,15.5234 109.6139,15.6084 L109.2699,15.7604 C108.7849,15.9814 107.9769,16.1154 107.3489,16.1154 C105.4159,16.1114 104.0489,15.0054 104.0469,13.3904" id="Fill-44" fill="#006F51"></path>
                <path d="M119.757,9.8213 L119.757,9.7233 C119.754,8.4083 118.831,7.5193 117.434,7.5133 C116.093,7.5173 115.117,8.4593 115.054,9.8213 L119.757,9.8213 Z M114.351,14.7733 C113.528,13.9103 113.076,12.6693 113.076,11.1643 C113.076,9.5923 113.498,8.3013 114.266,7.4013 C115.037,6.5003 116.153,5.9993 117.51,6.0003 C120.053,6.0053 121.728,7.7823 121.733,10.4533 L121.733,10.9713 C121.733,11.1723 121.575,11.3523 121.351,11.3523 L115.051,11.3523 L115.051,11.3753 C115.057,13.3113 116.252,14.5773 118.086,14.5833 C118.733,14.5843 119.608,14.3183 120.367,13.8833 L120.506,13.8143 C120.613,13.7373 120.736,13.7203 120.813,13.7183 C121.027,13.7183 121.177,13.9063 121.177,14.1203 L121.177,14.8693 C121.194,15.1893 121.063,15.3573 120.698,15.4933 C119.858,15.8833 118.772,16.1153 117.799,16.1153 C116.357,16.1153 115.172,15.6363 114.351,14.7733 L114.351,14.7733 Z" id="Fill-46" fill="#006F51"></path>
                <path d="M122.1798,7.6865 C121.9728,7.6835 121.7998,7.5125 121.7968,7.3045 L121.7968,6.5355 C121.7998,6.3285 121.9708,6.1565 122.1798,6.1545 L123.1428,6.1545 L123.1428,3.9825 C123.1428,3.7825 123.2988,3.5995 123.5238,3.5995 L124.7348,3.5995 C124.9418,3.6025 125.1138,3.7735 125.1168,3.9825 L125.1168,6.1545 L127.7868,6.1545 C127.9948,6.1565 128.1658,6.3285 128.1678,6.5355 L128.1678,7.3045 C128.1678,7.5295 127.9868,7.6855 127.7868,7.6865 L125.1168,7.6855 L125.1168,13.1605 C125.1348,14.1925 125.4808,14.5665 126.4038,14.5825 C126.7348,14.5825 127.0668,14.5085 127.3378,14.3645 L127.5588,14.2445 C127.6608,14.2035 127.7458,14.1795 127.8258,14.1795 C128.0348,14.1795 128.1678,14.3615 128.1678,14.5815 L128.1678,15.2725 C128.1828,15.4715 128.0958,15.6305 127.9078,15.7015 C127.4028,15.9615 126.5728,16.1155 125.8658,16.1165 C125.0148,16.1165 124.3298,15.8845 123.8618,15.4435 C123.3898,15.0035 123.1428,14.3605 123.1428,13.5625 L123.1428,7.6865 L122.1798,7.6865" id="Fill-48" fill="#006F51"></path>
                <path d="M135.4982,15.9619 C135.2892,15.9589 135.1182,15.7869 135.1152,15.5799 L135.1152,9.4549 C135.1022,8.1099 134.4742,7.5299 132.9822,7.5139 C132.5142,7.5139 132.1222,7.5879 131.7102,7.7379 C131.1502,7.9539 130.9932,8.1569 130.9842,8.6679 L130.9842,15.5799 C130.9842,15.7789 130.8282,15.9619 130.6022,15.9619 L129.3932,15.9619 C129.1842,15.9589 129.0142,15.7879 129.0102,15.5799 L129.0102,2.7149 C129.0142,2.5059 129.1842,2.3359 129.3932,2.3329 L130.6022,2.3329 C130.8282,2.3339 130.9842,2.5159 130.9842,2.7149 L130.9842,6.6329 C131.0622,6.6249 131.1522,6.5879 131.3712,6.4879 C132.1852,6.1379 132.8552,5.9999 133.5992,5.9999 C134.6622,5.9999 135.5432,6.3229 136.1562,6.9179 C136.7692,7.5099 137.1092,8.3689 137.1092,9.4159 L137.1092,15.5799 C137.1062,15.7879 136.9362,15.9589 136.7272,15.9619 L135.4982,15.9619 Z" id="Fill-50" fill="#006F51"></path>
                <path d="M57.9645,28.8828 C58.0635,28.8808 58.1515,28.9168 58.3235,29.0338 C58.9355,29.4608 60.0015,29.7678 60.8625,29.7658 C62.2315,29.7588 63.0485,29.0388 63.0535,27.9028 C63.0535,27.5858 62.9975,27.2928 62.8885,27.0398 C62.7245,26.6948 62.5365,26.5018 61.8845,26.0398 L59.6205,24.4668 C59.2125,24.1958 58.8805,23.9208 58.6435,23.6468 C58.1435,23.1078 57.8515,22.2988 57.8505,21.4508 C57.8485,20.3928 58.2315,19.5248 58.9285,18.9318 C59.6235,18.3358 60.6265,18.0158 61.8625,18.0158 C62.8155,18.0158 63.8795,18.2088 64.6275,18.5418 C64.8395,18.6148 64.9355,18.7498 64.9125,18.9928 L64.9125,20.0878 C64.9125,20.1988 64.9055,20.2828 64.8645,20.3578 C64.8215,20.4378 64.7285,20.4728 64.6465,20.4688 C64.5275,20.4728 64.4445,20.4278 64.2845,20.2998 C63.6075,19.8298 62.8205,19.5678 61.9575,19.5678 C60.6625,19.5758 59.9065,20.2198 59.9015,21.2578 C59.9065,21.9028 60.1395,22.2958 60.9165,22.8318 L63.2785,24.4258 C64.7115,25.3888 65.3015,26.3158 65.2965,27.6328 C65.2915,29.8778 63.5835,31.3148 60.9595,31.3188 C59.9875,31.3168 58.8315,31.1468 58.1035,30.8508 C57.7965,30.7498 57.6465,30.6048 57.6585,30.3598 L57.6585,29.2078 C57.6585,29.0388 57.7775,28.8828 57.9645,28.8828" id="Fill-52" fill="#006F51"></path>
                <path d="M70.0724,26.7246 L70.0724,26.7246 C68.5154,27.2556 68.1884,27.5976 68.1774,28.5156 C68.1874,29.3666 68.6974,29.7716 69.8504,29.7856 C70.4124,29.7856 70.9784,29.6716 71.4224,29.4876 C71.8464,29.2696 71.9104,29.1816 71.9264,28.6136 L71.9264,26.0766 L70.0724,26.7236 M66.1074,28.5936 C66.1054,27.6976 66.5504,26.9146 67.3404,26.4216 C68.0044,25.9926 69.0084,25.5476 70.0314,25.2206 L71.4294,24.7606 C71.8474,24.5966 71.9164,24.5236 71.9264,24.2536 L71.9244,23.8296 C71.9144,23.0606 71.4904,22.7516 70.3674,22.7356 C69.3674,22.7346 68.2254,23.0226 67.5404,23.4496 C67.3704,23.5666 67.2714,23.6026 67.1424,23.5996 C67.0394,23.5996 66.9444,23.5706 66.8774,23.5016 C66.8074,23.4356 66.7784,23.3386 66.7784,23.2366 L66.7784,22.4686 C66.7734,22.1996 66.8294,22.0186 67.0144,21.9086 C67.6304,21.5236 69.3504,21.2066 70.6174,21.2026 C71.6854,21.2036 72.5104,21.4256 73.0724,21.8826 C73.6354,22.3376 73.9204,23.0256 73.9184,23.9086 L73.9184,30.7836 C73.9164,30.9906 73.7444,31.1616 73.5354,31.1636 L72.5574,31.1636 C72.4204,31.1636 72.3014,31.1316 72.2204,31.0446 C72.1404,30.9576 72.1184,30.8406 72.1184,30.7056 L72.1184,30.7036 C71.9534,30.7086 71.8784,30.7266 71.6734,30.8106 L71.3284,30.9636 C70.8454,31.1836 70.0374,31.3166 69.4084,31.3186 C67.4744,31.3166 66.1104,30.2086 66.1074,28.5936" id="Fill-54" fill="#006F51"></path>
                <path d="M76.5587,31.164 C76.3517,31.162 76.1777,30.991 76.1757,30.781 L76.1757,22.889 L75.0227,22.889 C74.8147,22.887 74.6427,22.716 74.6397,22.507 L74.6397,21.739 C74.6427,21.529 74.8147,21.359 75.0227,21.357 L76.1757,21.357 L76.1757,20.356 C76.1737,19.216 76.4157,18.553 77.0577,18.056 C77.5937,17.617 78.3247,17.383 79.0547,17.383 C79.8427,17.389 80.4087,17.551 80.4357,17.994 L80.4357,18.781 C80.4357,18.975 80.3397,19.161 80.1487,19.164 C80.0717,19.164 79.9847,19.14 79.9007,19.099 L79.7287,19.021 C79.6077,18.971 79.3807,18.914 79.2087,18.914 C78.4657,18.928 78.1657,19.28 78.1507,20.24 L78.1657,21.355 L79.9377,21.357 C80.1467,21.359 80.3187,21.529 80.3207,21.739 L80.3207,22.545 C80.3207,22.647 80.2887,22.744 80.2147,22.807 C80.1417,22.869 80.0447,22.889 79.9377,22.889 L78.1507,22.889 L78.1507,30.781 C78.1477,30.99 77.9777,31.162 77.7687,31.164 L76.5587,31.164 Z" id="Fill-56" fill="#006F51"></path>
                <path d="M83.1076,29.1855 C83.5076,29.6775 84.1876,29.9585 85.0116,29.9585 C86.7796,29.9495 87.6306,28.8085 87.6446,26.3285 C87.6306,23.8465 86.7806,22.7245 84.9946,22.7165 C83.2056,22.7265 82.3756,23.8265 82.3616,26.3665 C82.3626,27.7805 82.5706,28.5355 83.1076,29.1855 M84.9946,21.2035 C86.4626,21.2035 87.6506,21.6815 88.4626,22.5675 C89.2776,23.4545 89.7146,24.7365 89.7146,26.3285 C89.7146,27.9105 89.2736,29.2015 88.4626,30.0995 C87.6566,30.9965 86.4866,31.4915 85.0546,31.4915 L85.0506,31.4915 C83.5906,31.4925 82.3946,30.9975 81.5686,30.1015 C80.7426,29.2065 80.2916,27.9195 80.2916,26.3465 C80.2916,24.7645 80.7326,23.4785 81.5476,22.5835 C82.3616,21.6915 83.5436,21.2035 84.9946,21.2035" id="Fill-58" fill="#006F51"></path>
                <path d="M92.8976,21.8369 C93.0536,21.8359 93.1466,21.8049 93.4196,21.6899 C93.6696,21.5929 93.7986,21.5369 93.8826,21.5149 C94.4686,21.2999 95.0566,21.2029 95.6816,21.2029 C96.7366,21.2029 97.6086,21.5219 98.2126,22.1079 C98.8206,22.6939 99.1556,23.5429 99.1556,24.5799 L99.1556,30.7829 C99.1526,30.9899 98.9816,31.1619 98.7736,31.1639 L97.5446,31.1639 C97.3346,31.1619 97.1646,30.9899 97.1626,30.7829 L97.1626,24.8509 C97.1466,23.3829 96.5126,22.7499 95.0486,22.7339 C94.5786,22.7339 94.1076,22.8109 93.7176,22.9599 C93.1796,23.1759 93.0396,23.3789 93.0316,23.8519 L93.0316,30.7829 C93.0276,30.9899 92.8566,31.1619 92.6476,31.1639 L91.4376,31.1639 C91.2286,31.1619 91.0586,30.9899 91.0566,30.7829 L91.0566,21.7379 C91.0586,21.5299 91.2286,21.3589 91.4376,21.3569 L92.3776,21.3569 C92.5376,21.3579 92.6546,21.3709 92.7426,21.4559 C92.8286,21.5439 92.8356,21.6569 92.8376,21.7959 L92.8376,21.8369 L92.8976,21.8369" id="Fill-60" fill="#006F51"></path>
                <path d="M104.1906,26.7236 L104.1906,26.7236 C102.6366,27.2556 102.3066,27.5956 102.2966,28.5166 C102.3066,29.3656 102.8166,29.7716 103.9686,29.7856 C104.5336,29.7856 105.0976,29.6716 105.5406,29.4876 C105.9666,29.2696 106.0306,29.1816 106.0446,28.6126 L106.0446,26.0766 L104.1926,26.7236 M100.2266,28.5936 C100.2256,27.6976 100.6686,26.9136 101.4596,26.4216 C102.1246,25.9916 103.1276,25.5476 104.1506,25.2206 L105.5486,24.7606 C105.9686,24.5976 106.0356,24.5236 106.0446,24.2536 L106.0436,23.8316 C106.0336,23.0606 105.6096,22.7516 104.4866,22.7366 C103.4886,22.7346 102.3446,23.0226 101.6606,23.4496 C101.4906,23.5666 101.3916,23.6026 101.2616,23.5996 C101.1586,23.5996 101.0636,23.5706 100.9966,23.5016 C100.9276,23.4356 100.8976,23.3396 100.8996,23.2366 L100.8996,22.4676 C100.8936,22.1996 100.9496,22.0186 101.1326,21.9086 C101.7516,21.5236 103.4696,21.2066 104.7376,21.2026 C105.8066,21.2026 106.6286,21.4256 107.1926,21.8826 C107.7556,22.3376 108.0396,23.0256 108.0376,23.9086 L108.0376,30.7836 C108.0356,30.9926 107.8636,31.1616 107.6566,31.1636 L106.6766,31.1636 C106.5386,31.1656 106.4206,31.1326 106.3416,31.0446 C106.2596,30.9576 106.2366,30.8406 106.2366,30.7046 L106.2366,30.7036 C106.0706,30.7066 105.9986,30.7266 105.7936,30.8106 L105.4486,30.9636 C104.9646,31.1836 104.1566,31.3186 103.5276,31.3186 C101.5936,31.3146 100.2306,30.2086 100.2266,28.5936" id="Fill-62" fill="#006F51"></path>
                <path d="M110.6779,30.5019 C110.0859,29.9689 109.7639,29.1899 109.7639,28.2289 L109.7639,21.7389 C109.7669,21.5289 109.9369,21.3589 110.1469,21.3559 L111.3759,21.3559 C111.5839,21.3589 111.7539,21.5289 111.7579,21.7389 L111.7579,27.6719 C111.7579,28.5449 111.9489,29.0829 112.3349,29.3439 C112.7159,29.6349 113.2519,29.7859 113.8519,29.7859 C114.2069,29.7859 114.6209,29.7299 115.0369,29.6159 C115.7189,29.4119 115.8579,29.2509 115.8689,28.7659 L115.8689,21.7389 C115.8729,21.5289 116.0429,21.3589 116.2519,21.3559 L117.4819,21.3559 C117.6899,21.3589 117.8599,21.5289 117.8629,21.7389 L117.8629,30.7829 C117.8599,30.9899 117.6899,31.1619 117.4819,31.1639 L116.4439,31.1639 C116.2249,31.1639 116.0629,30.9939 116.0629,30.7629 L116.0629,30.7049 C115.9009,30.7109 115.8029,30.7309 115.6129,30.7939 L115.0549,31.0049 C114.4119,31.2399 113.8769,31.3179 113.1799,31.3179 C112.1259,31.3179 111.2719,31.0349 110.6779,30.5019" id="Fill-64" fill="#006F51"></path>
                <path d="M61.7457,38.5317 C62.8047,38.5277 63.0927,38.4437 63.5247,38.0027 C63.9067,37.6367 64.1087,37.1077 64.1087,36.5137 C64.1007,35.2267 63.3727,34.4657 62.1497,34.4577 L60.3617,34.4577 L60.3617,38.5317 L61.7457,38.5317 L61.7457,38.5317 Z M62.2667,44.6567 C64.0207,44.6447 64.8667,43.8637 64.8777,42.3147 C64.8647,40.7037 64.0227,39.9457 62.1497,39.9297 L60.3617,39.9297 L60.3617,44.6567 L62.2667,44.6567 L62.2667,44.6567 Z M58.6177,46.0547 C58.4487,46.0547 58.3117,45.9187 58.3107,45.7507 L58.3107,33.3657 C58.3117,33.1977 58.4487,33.0607 58.6177,33.0607 L62.3607,33.0607 C63.6037,33.0607 64.5767,33.3407 65.2427,33.8947 C65.9107,34.4497 66.2577,35.2757 66.2567,36.3227 C66.2647,37.7567 65.5657,38.7097 64.2877,39.0277 C64.3067,39.0337 64.3167,39.0357 64.3227,39.0337 C64.6957,39.1337 65.0287,39.2697 65.3607,39.4247 C66.4127,39.9617 67.0267,41.0377 67.0247,42.3717 C67.0257,43.5067 66.6057,44.4357 65.8387,45.0747 C65.0727,45.7097 63.9697,46.0547 62.6097,46.0567 L58.6177,46.0547 Z" id="Fill-66" fill="#006F51"></path>
                <path d="M74.3751,38.4907 L74.3751,38.4867 L74.3111,38.4727 L74.3751,38.4907 Z M76.1031,45.3927 L75.9101,44.7567 L75.4861,43.1237 L75.0451,41.3947 L74.6041,39.4727 L74.3891,38.5477 L74.1531,39.4357 L73.6911,41.2817 L73.1921,43.1427 C72.7111,44.9887 72.5451,45.5977 72.3361,45.9187 C72.2031,46.1217 71.9801,46.2137 71.6431,46.2097 L70.7781,46.2097 C70.3161,46.2227 70.0641,46.0237 69.9201,45.5297 L69.8061,45.1647 L67.1781,36.9147 C67.1351,36.8067 67.0971,36.6797 67.0931,36.5927 C67.0941,36.3797 67.2801,36.2467 67.5141,36.2467 L68.6091,36.2467 C68.9461,36.2307 69.1521,36.3757 69.2361,36.7197 L71.4101,44.0647 L71.4161,44.0377 L71.7821,42.5377 L72.4361,40.1547 L72.8571,38.6217 L73.1451,37.5477 C73.2621,37.0997 73.3791,36.7697 73.4801,36.5627 C73.6001,36.3517 73.8511,36.2467 74.1591,36.2467 L74.9661,36.2467 C75.4591,36.2267 75.6871,36.4247 75.8051,36.9517 L75.9001,37.3347 L76.2461,38.6387 L76.7071,40.3497 C77.0141,41.5587 77.2051,42.3087 77.2841,42.5997 C77.4651,43.3967 77.5741,43.8247 77.5911,43.9437 C77.6051,43.9867 77.6191,44.0317 77.6341,44.0827 L79.7691,36.6837 C79.8301,36.3597 80.0221,36.2287 80.3031,36.2467 L81.1091,36.2467 C81.2331,36.2467 81.3321,36.2657 81.4101,36.3287 C81.4871,36.3947 81.5111,36.4927 81.5101,36.5927 C81.5061,36.6257 81.5201,36.6707 81.4811,36.7307 L81.4291,36.8697 L78.9341,44.8927 L78.7981,45.3577 C78.6051,46.0117 78.3691,46.2247 77.8641,46.2097 L77.0391,46.2097 C77.0111,46.2117 76.9841,46.2117 76.9591,46.2117 C76.4661,46.2117 76.2641,46.0137 76.1031,45.3927 L76.1031,45.3927 Z" id="Fill-68" fill="#006F51"></path>
                <path d="M88.6408,36.6782 C88.7288,36.3692 88.9238,36.2332 89.2098,36.2462 L90.0158,36.2462 C90.2818,36.2462 90.5128,36.3152 90.5128,36.5512 C90.5148,36.6492 90.4878,36.7252 90.4318,36.8542 L87.2638,45.5322 L86.8608,46.6662 C86.4938,47.6492 86.0718,48.6122 85.7408,49.2132 C85.3748,49.8792 84.9048,50.1842 84.2018,50.1842 L84.1798,50.1842 L84.0058,50.1842 C83.8288,50.1822 83.6978,50.1682 83.5978,50.0882 C83.4948,50.0022 83.4708,49.8752 83.4708,49.7252 L83.4708,49.0142 C83.4708,48.7312 83.5938,48.4982 83.8538,48.4982 L84.0278,48.4982 C84.1898,48.4912 84.2508,48.4552 84.3688,48.2542 C84.5548,47.9532 84.7648,47.5182 84.9548,46.9852 L85.3848,45.8482 L81.7328,36.9362 C81.6568,36.7662 81.6288,36.6902 81.6288,36.5922 C81.6288,36.3502 81.8488,36.2462 82.1058,36.2462 L83.1618,36.2462 C83.4868,36.2372 83.7088,36.3752 83.8068,36.6532 L86.4378,43.4512 L88.6398,36.6782" id="Fill-70" fill="#006F51"></path>
                <path d="M93.1564,38.5747 C92.5784,39.2287 92.3774,39.9007 92.3734,41.2757 C92.3834,43.4317 93.4984,44.6687 95.4094,44.6767 C95.7834,44.6767 96.1594,44.6197 96.4744,44.5257 C97.1134,44.3067 97.2604,44.1277 97.2724,43.5977 L97.2734,38.7607 C97.2654,38.3107 97.1774,38.1407 96.8944,37.9577 C96.5344,37.7407 96.0104,37.6257 95.4284,37.6257 C94.4684,37.6277 93.6954,37.9437 93.1564,38.5747 M91.5824,44.8457 C90.7604,43.9747 90.3024,42.7267 90.3024,41.2197 C90.3064,38.2207 92.2644,36.0977 95.0244,36.0947 C95.7124,36.0947 96.4314,36.2467 96.8654,36.5317 L97.0484,36.6627 C97.1564,36.7227 97.1734,36.7327 97.2364,36.7327 L97.2724,36.7327 L97.2734,32.8087 C97.2744,32.5997 97.4454,32.4277 97.6544,32.4267 L98.8644,32.4267 C99.0904,32.4267 99.2464,32.6087 99.2474,32.8087 L99.2464,45.6747 C99.2464,45.8817 99.0744,46.0537 98.8644,46.0547 L97.8664,46.0547 C97.6424,46.0547 97.4664,45.8717 97.4664,45.6357 L97.4664,45.6157 C97.3744,45.6237 97.2964,45.6427 97.1944,45.7017 L97.0254,45.7757 C96.4334,46.0727 95.7474,46.2097 95.0064,46.2097 C93.5824,46.2097 92.4024,45.7197 91.5824,44.8457" id="Fill-72" fill="#006F51"></path>
            </g>
        </g>
    </g>
</svg>