<?xml version="1.0" encoding="utf-8"?>
<!-- Generator: Adobe Illustrator 21.1.0, SVG Export Plug-In . SVG Version: 6.00 Build 0)  -->
<svg version="1.1" id="Layer_1" xmlns="http://www.w3.org/2000/svg" xmlns:xlink="http://www.w3.org/1999/xlink" x="0px" y="0px"
	 viewBox="0 0 137.1 64.2" style="enable-background:new 0 0 137.1 64.2;" xml:space="preserve">
<style type="text/css">
	.st0{fill:#6CB33F;}
	.st1{fill:#BED9A8;}
	.st2{fill:#006F51;}
	.st3{fill:#FFFFFF;}
</style>
<g>
	<g>
		<g>
			<g>
				<g>
					<path class="st0" d="M12.2,41.6l0-25.9c0-1,0.6-1.9,1.4-1.9c0.7,0,1.3,0.7,1.4,1.6l0,21c0,1,0.6,1.9,1.4,1.9
						c0.7,0,1.3-0.8,1.4-1.8v0c0,0,0-0.1,0-0.1l0-20.8c0-1,0.6-1.8,1.4-1.8c0.6,0,1.2,0.6,1.3,1.4l0-4.3h0c0-4.1,2.5-8.8,6.1-10.8
						C19.9-0.1,13.3,2.2,8.1,7C-2.3,16.8-2.8,33.2,7,43.6c2.5,2.7,5.5,4.7,8.7,6.1c-1.8-2.1-2.9-4.5-3.4-6.8
						C12.3,42.6,12.2,41.9,12.2,41.6"/>
					<path class="st1" d="M39.4,10.4l0,25.9c0,1-0.6,1.9-1.4,1.9c-0.7,0-1.3-0.7-1.4-1.6l0-21c0-1-0.6-1.9-1.4-1.9
						c-0.7,0-1.3,0.8-1.4,1.8v0c0,0,0,0.1,0,0.1l0,20.8c0,1-0.6,1.8-1.4,1.8c-0.6,0-1.2-0.6-1.3-1.4l0,4.3l0,0c0,4-2.4,8.5-5.8,10.6
						c6.5,0.1,13-2.2,18.1-7C54,34.9,54.5,18.5,44.7,8.1c-2.7-2.8-5.8-4.9-9.2-6.3c2,2.1,3.4,5.1,3.8,7.7
						C39.4,9.8,39.4,10.1,39.4,10.4"/>
					<path class="st2" d="M26.4,0c-3.6,1.9-6.1,6.7-6.1,10.8l0,0l0,4.3l0,0l0,21.2c0,1,0.6,1.9,1.4,1.9c0.5,0,1-0.4,1.2-1.1
						c0,0,0,0,0,0c0-0.1,0.1-0.2,0.1-0.3c0,0,0,0,0-0.1c0-0.1,0-0.2,0-0.2c0-0.1,0-0.1,0-0.2l0-20.4l0-0.4c0-0.7,0.4-1.3,0.8-1.6
						c0,0,0,0,0,0c0,0,0,0,0,0c0.2-0.1,0.3-0.1,0.5-0.1c0.6,0,1.2,0.6,1.3,1.4l0,0.1c0,0.1,0,0.2,0,0.3l0,21
						c0.1,0.9,0.7,1.6,1.3,1.5c0.2,0,0.3,0,0.5-0.1c0,0,0,0,0,0c0,0,0,0,0,0c0.5-0.3,0.8-0.9,0.8-1.7l0-20.6l0-0.3c0,0,0-0.1,0-0.1
						c0-0.1,0-0.2,0-0.2c0,0,0,0,0-0.1c0-0.1,0-0.2,0.1-0.3l0,0c0.2-0.6,0.7-1.1,1.2-1.1c0.8,0,1.4,0.8,1.4,1.9l0,21.3
						c0.2,0.8,0.7,1.4,1.3,1.4c0.7,0,1.3-0.8,1.4-1.8l0-20.8c0,0,0-0.1,0-0.1v0c0-1,0.6-1.8,1.4-1.8c0.8,0,1.4,0.8,1.4,1.9l0,21
						c0.1,0.9,0.7,1.6,1.4,1.6c0.8,0,1.4-0.8,1.4-1.9l0-25.9c0-0.3,0-0.6-0.1-0.9c-0.4-2.6-1.8-5.5-3.9-7.6
						C32.6,0.7,29.5,0.1,26.4,0"/>
					<path class="st3" d="M25.6,51.8c3.6-1.9,5.8-6.5,5.8-10.6l0,0l0-4.3l0,0l0-21.2c0-1-0.6-1.9-1.4-1.9c-0.5,0-1,0.4-1.2,1.1
						c0,0,0,0,0,0c0,0.1-0.1,0.2-0.1,0.3c0,0,0,0,0,0.1c0,0.1,0,0.2,0,0.2c0,0.1,0,0.1,0,0.2l0,20.4l0,0.4c0,0.7-0.4,1.3-0.8,1.6
						c0,0,0,0,0,0c0,0,0,0,0,0c-0.2,0.1-0.3,0.1-0.5,0.1c-0.6,0-1.2-0.6-1.3-1.4l0-0.1c0-0.1,0-0.2,0-0.3l0-21
						c-0.1-0.9-0.7-1.6-1.3-1.5c-0.2,0-0.3,0-0.5,0.1c0,0,0,0,0,0c0,0,0,0,0,0c-0.5,0.3-0.8,0.9-0.8,1.7l0,20.6l0,0.3
						c0,0,0,0.1,0,0.1c0,0.1,0,0.2,0,0.2c0,0,0,0,0,0.1c0,0.1,0,0.2-0.1,0.3l0,0c-0.2,0.6-0.7,1.1-1.2,1.1c-0.8,0-1.4-0.8-1.4-1.9
						l0-21.3c-0.2-0.8-0.7-1.4-1.3-1.4c-0.7,0-1.3,0.8-1.4,1.8l0,20.8c0,0,0,0.1,0,0.1v0c0,1-0.6,1.8-1.4,1.8
						c-0.8,0-1.4-0.8-1.4-1.9l0-21c-0.1-0.9-0.7-1.6-1.4-1.6c-0.8,0-1.4,0.8-1.4,1.9l0,25.9c0,0.3,0,0.6,0.1,0.9
						c0.4,2.6,1.4,5.2,3.5,7.3C18.6,50.8,22.4,51.7,25.6,51.8"/>
				</g>
			</g>
		</g>
	</g>
	<g>
		<g>
			<g>
				<path class="st0" d="M59.6,61.1c0,0.1-0.1,0.2-0.2,0.2h-0.9c-0.1,0-0.2-0.1-0.2-0.2v-5.8h-0.9c-0.1,0-0.2-0.1-0.2-0.2v-0.6
					c0-0.1,0.1-0.2,0.2-0.2h0.9v-0.8c0-0.8,0.2-1.3,0.6-1.6c0.4-0.3,0.9-0.5,1.4-0.5c0.6,0,0.9,0.1,0.9,0.4v0.6
					c0,0.1-0.1,0.2-0.1,0.2c0,0-0.1,0-0.2,0l-0.1-0.1c-0.1,0-0.3-0.1-0.4-0.1c-0.6,0-0.8,0.3-0.8,1l0,0.9H61c0.1,0,0.2,0.1,0.2,0.2
					v0.6c0,0.1-0.1,0.2-0.2,0.2h-1.4V61.1z"/>
				<path class="st0" d="M64.8,54.2c2.1,0,3.4,1.4,3.4,3.7c0,2.3-1.3,3.7-3.3,3.7c-2.1,0-3.4-1.4-3.4-3.7
					C61.4,55.6,62.7,54.2,64.8,54.2z M63.4,60c0.3,0.4,0.8,0.6,1.4,0.6c1.3,0,2-0.9,2-2.7c0-1.8-0.7-2.7-2-2.7c-1.3,0-2,0.9-2,2.7
					C62.8,58.9,63,59.5,63.4,60z"/>
				<path class="st0" d="M72.3,54.2c2.1,0,3.4,1.4,3.4,3.7c0,2.3-1.3,3.7-3.3,3.7c-2.1,0-3.4-1.4-3.4-3.7
					C68.9,55.6,70.2,54.2,72.3,54.2z M70.9,60c0.3,0.4,0.8,0.6,1.4,0.6c1.3,0,2-0.9,2-2.7c0-1.8-0.7-2.7-2-2.7c-1.3,0-2,0.9-2,2.7
					C70.3,58.9,70.5,59.5,70.9,60z"/>
				<path class="st0" d="M81.7,61c-0.1,0-0.2,0-0.3,0.1l-0.1,0.1c-0.4,0.2-0.9,0.3-1.4,0.3c-2.1,0-3.4-1.4-3.4-3.6
					c0-2.2,1.4-3.7,3.4-3.7c0.5,0,1,0.1,1.3,0.3l0.1,0.1c0.1,0.1,0.1,0.1,0.2,0.1h0v-2.9c0-0.1,0.1-0.2,0.2-0.2h0.9
					c0.1,0,0.2,0.1,0.2,0.2v9.4c0,0.1-0.1,0.2-0.2,0.2h-0.7C81.8,61.3,81.7,61.2,81.7,61L81.7,61L81.7,61z M81.2,55.4
					c-0.3-0.2-0.7-0.3-1.1-0.3c-0.7,0-1.3,0.2-1.7,0.7c-0.4,0.5-0.6,1-0.6,2c0,1.6,0.9,2.6,2.3,2.6c0.3,0,0.6,0,0.8-0.1
					c0.5-0.2,0.6-0.3,0.6-0.7v-3.5C81.5,55.7,81.5,55.6,81.2,55.4z"/>
				<path class="st0" d="M85.2,59.5c0.7,0,1,0.3,1,1c0,0.6-0.3,0.9-1,0.9c-0.7,0-1-0.3-1-1C84.2,59.8,84.5,59.5,85.2,59.5z"/>
				<path class="st0" d="M91.6,61c-0.5,0.3-1,0.4-1.5,0.4c-2,0-3.3-1.4-3.3-3.5c0-2.2,1.4-3.6,3.5-3.6c0.4,0,0.8,0.1,1.1,0.2
					c0.1,0,0.2,0.1,0.4,0.2c0.1,0,0.1,0.1,0.2,0.1l0.1,0v-0.1c0-0.2,0.1-0.2,0.2-0.2H93c0.1,0,0.2,0.1,0.2,0.2v7
					c0,1.8-1.2,2.8-3.3,2.8c-0.8,0-1.7-0.2-2.3-0.4c-0.3-0.1-0.4-0.2-0.4-0.4v-0.6c0-0.1,0.1-0.2,0.2-0.2c0.1,0,0.1,0,0.2,0.1
					l0.2,0.1c0.6,0.3,1.4,0.5,2.1,0.5c0.6,0,1.2-0.1,1.6-0.4c0.3-0.2,0.5-0.6,0.5-1.3v-0.7C91.8,60.9,91.8,60.9,91.6,61z M91.6,55.5
					c-0.3-0.2-0.7-0.3-1.2-0.3c-1.4,0-2.3,1-2.3,2.6c0,1.6,0.9,2.6,2.2,2.6c0.4,0,0.9-0.1,1.2-0.3c0.2-0.1,0.3-0.3,0.3-0.5V56
					C91.9,55.7,91.8,55.6,91.6,55.5z"/>
				<path class="st0" d="M97.6,54.2c2.1,0,3.4,1.4,3.4,3.7c0,2.3-1.3,3.7-3.3,3.7c-2.1,0-3.4-1.4-3.4-3.7
					C94.3,55.6,95.5,54.2,97.6,54.2z M96.2,60c0.3,0.4,0.8,0.6,1.4,0.6c1.3,0,2-0.9,2-2.7c0-1.8-0.7-2.7-2-2.7c-1.3,0-2,0.9-2,2.7
					C95.6,58.9,95.8,59.5,96.2,60z"/>
				<path class="st0" d="M106.5,54.4c0-0.1,0.1-0.1,0.2-0.1h0.7c0.2,0,0.3,0.1,0.3,0.2c0,0,0,0.1-0.1,0.2l-2.1,6.1
					c-0.1,0.2-0.1,0.4-0.2,0.4c-0.1,0.2-0.2,0.2-0.5,0.2h-0.6c-0.4,0-0.5-0.1-0.6-0.4l-0.1-0.2l-2.1-6.1c0-0.1,0-0.1,0-0.2
					c0-0.1,0.1-0.2,0.3-0.2h0.9c0.1,0,0.2,0.1,0.2,0.1l1.9,5.7L106.5,54.4z"/>
				<path class="st0" d="M108.5,59.5c0.7,0,1,0.3,1,1c0,0.6-0.3,0.9-1,0.9c-0.7,0-1-0.3-1-1C107.4,59.8,107.8,59.5,108.5,59.5z"/>
				<path class="st0" d="M114.7,61.1l-0.4,0.2c-0.5,0.2-0.8,0.2-1.3,0.2c-1.5,0-2.4-0.8-2.4-2.2v-4.8c0-0.1,0.1-0.2,0.2-0.2h0.9
					c0.1,0,0.2,0.1,0.2,0.2v4.3c0,0.6,0.1,1.1,0.4,1.3c0.3,0.2,0.7,0.3,1.2,0.3c0.3,0,0.6,0,0.9-0.1c0.5-0.1,0.7-0.3,0.7-0.7v-5.1
					c0-0.1,0.1-0.2,0.2-0.2h0.9c0.1,0,0.2,0.1,0.2,0.2v6.6c0,0.1-0.1,0.2-0.2,0.2h-0.8c-0.1,0-0.2-0.1-0.2-0.2V61
					C115,61,114.9,61,114.7,61.1z"/>
				<path class="st0" d="M119.4,57.1c0,0,0.1,0,0.2-0.1l2.5-2.6c0.1-0.1,0.1-0.1,0.3-0.1h0.8c0.1,0,0.2,0.1,0.2,0.2
					c0,0.1,0,0.2-0.1,0.3l-2.7,2.7l2.8,3.5c0.1,0.1,0.1,0.2,0.1,0.3c0,0.1-0.1,0.2-0.3,0.2h-1c-0.2,0-0.3,0-0.4-0.2l-2.2-3
					c-0.1-0.1-0.1-0.1-0.2-0.1h0v3.1c0,0.1-0.1,0.2-0.2,0.2h-1c-0.1,0-0.2-0.1-0.2-0.2v-9.4c0-0.1,0.1-0.2,0.2-0.2h1
					c0.1,0,0.2,0.1,0.2,0.2L119.4,57.1L119.4,57.1z"/>
			</g>
		</g>
	</g>
	<g>
		<g>
			<path class="st2" d="M65.9,15.7l-1.4-4.4H60l-1.5,4.4l0,0c0,0.1-0.2,0.2-0.3,0.2l0,0h-1.1c-0.1,0-0.2,0-0.3-0.1l0,0
				c-0.1-0.1-0.1-0.1-0.1-0.2l0,0c0,0,0,0,0-0.1l0,0v0l0,0l0.1-0.2L61,3.7l0.1-0.4C61.3,3,61.5,2.8,62,2.8l0,0h0.8
				c0.3,0,0.5,0,0.6,0.1l0,0c0.2,0.1,0.3,0.4,0.4,0.8l0,0l4,11.7l0.1,0.2c0,0.1,0,0.1,0,0.1l0,0c0,0.2-0.2,0.3-0.4,0.3l0,0h-1.3h0
				l0,0C66.1,16,65.9,15.9,65.9,15.7L65.9,15.7z M60.5,9.9H64l-1.7-5.4L60.5,9.9L60.5,9.9z"/>
		</g>
		<g>
			<path class="st2" d="M70.6,11.6c-0.8-0.4-1.1-0.6-1.4-1l0,0c-0.4-0.4-0.7-1-0.7-1.8l0,0c0-1.8,1.3-2.9,3.3-2.9l0,0
				c0.7,0,1.3,0.1,2,0.4l0,0c0.4,0.2,0.5,0.3,0.5,0.6l0,0v0.9c0,0.2-0.1,0.4-0.3,0.4l0,0c-0.1,0-0.2-0.1-0.4-0.1l0,0
				c-0.8-0.5-1.2-0.6-1.9-0.6l0,0c-0.9,0-1.3,0.3-1.3,1l0,0c0,0.3,0.1,0.6,0.4,0.8l0,0c0.2,0.1,0.4,0.3,0.9,0.6l0,0l0.7,0.4
				c0.8,0.5,1.2,0.7,1.5,1.1l0,0c0.4,0.5,0.6,1.1,0.6,1.8l0,0c0,1.8-1.3,2.9-3.4,2.9l0,0c-0.8,0-1.5-0.1-2.3-0.4l0,0
				c-0.4-0.2-0.6-0.3-0.5-0.6l0,0v-0.8c0-0.2,0.1-0.4,0.3-0.4l0,0c0.1,0,0.2,0,0.3,0.1l0,0c0.7,0.4,1.4,0.6,2.1,0.6l0,0
				c1,0,1.5-0.4,1.5-1.1l0,0c0-0.5-0.3-0.9-0.8-1.2l0,0L71.2,12L70.6,11.6"/>
		</g>
		<g>
			<path class="st2" d="M76.1,16c-0.2,0-0.4-0.2-0.4-0.4l0,0v-9c0-0.2,0.2-0.4,0.4-0.4l0,0h1.2c0.2,0,0.4,0.2,0.4,0.4l0,0v9
				c0,0.2-0.2,0.4-0.4,0.4l0,0H76.1L76.1,16z M76.8,2.3c0.4,0,0.7,0.1,0.9,0.3l0,0c0.2,0.2,0.3,0.5,0.3,0.9l0,0
				c0,0.4-0.1,0.7-0.3,0.9l0,0c-0.2,0.2-0.5,0.3-0.9,0.3l0,0h0l0,0c-0.4,0-0.7-0.1-0.9-0.3l0,0c-0.2-0.2-0.3-0.5-0.3-0.9l0,0
				C75.6,2.8,76,2.3,76.8,2.3L76.8,2.3"/>
		</g>
		<g>
			<path class="st2" d="M78.9,13.4c0-0.9,0.4-1.7,1.2-2.2l0,0c0.7-0.4,1.7-0.9,2.7-1.2l0,0l1.4-0.5c0.4-0.2,0.5-0.2,0.5-0.5l0,0V8.6
				c0-0.8-0.4-1.1-1.6-1.1l0,0c-1,0-2.1,0.3-2.8,0.7l0,0c-0.2,0.1-0.3,0.2-0.4,0.2l0,0c-0.1,0-0.2,0-0.3-0.1l0,0
				c-0.1-0.1-0.1-0.2-0.1-0.3l0,0V7.3c0-0.3,0.1-0.5,0.2-0.6l0,0C80.5,6.3,82.2,6,83.4,6l0,0c1.1,0,1.9,0.2,2.5,0.7l0,0
				c0.6,0.5,0.8,1.1,0.8,2l0,0v6.9c0,0.2-0.2,0.4-0.4,0.4l0,0h-1c-0.1,0-0.3,0-0.3-0.1l0,0c-0.1-0.1-0.1-0.2-0.1-0.3l0,0v0
				c-0.2,0-0.2,0-0.4,0.1l0,0l-0.3,0.2c-0.5,0.2-1.3,0.4-1.9,0.4l0,0C80.3,16.1,78.9,15,78.9,13.4L78.9,13.4z M82.9,11.5L82.9,11.5
				c-1.6,0.5-1.9,0.9-1.9,1.8l0,0c0,0.8,0.5,1.3,1.7,1.3l0,0c0.6,0,1.1-0.1,1.6-0.3l0,0c0.4-0.2,0.5-0.3,0.5-0.9l0,0l0-2.5
				L82.9,11.5"/>
		</g>
		<g>
			<path class="st2" d="M90.4,6.6c0.2,0,0.2,0,0.5-0.1l0,0c0.2-0.1,0.4-0.2,0.5-0.2l0,0C92,6.1,92.6,6,93.2,6l0,0
				c1.1,0,1.9,0.3,2.5,0.9l0,0c0.6,0.6,0.9,1.4,0.9,2.5l0,0v6.2c0,0.2-0.2,0.4-0.4,0.4l0,0h-1.2l0,0c-0.2,0-0.4-0.2-0.4-0.4l0,0V9.6
				c0-1.5-0.6-2.1-2.1-2.1l0,0c-0.5,0-0.9,0.1-1.3,0.2l0,0c-0.5,0.2-0.7,0.4-0.7,0.9l0,0v6.9c0,0.2-0.2,0.4-0.4,0.4l0,0H89
				c-0.2,0-0.4-0.2-0.4-0.4l0,0v-9c0-0.2,0.2-0.4,0.4-0.4l0,0h0.9c0.2,0,0.3,0,0.4,0.1l0,0C90.3,6.3,90.4,6.5,90.4,6.6L90.4,6.6
				L90.4,6.6L90.4,6.6"/>
		</g>
		<g>
			<path class="st2" d="M97.6,7.7c-0.2,0-0.4-0.2-0.4-0.4l0,0V6.5c0-0.2,0.2-0.4,0.4-0.4l0,0h1V4c0-0.2,0.2-0.4,0.4-0.4l0,0h1.2
				c0.2,0,0.4,0.2,0.4,0.4l0,0v2.2h2.7c0.2,0,0.4,0.2,0.4,0.4l0,0v0.8c0,0.2-0.2,0.4-0.4,0.4l0,0h-2.7v5.5c0,1,0.4,1.4,1.3,1.4l0,0
				c0.3,0,0.7-0.1,0.9-0.2l0,0l0.2-0.1c0.1,0,0.2-0.1,0.3-0.1l0,0c0.2,0,0.3,0.2,0.3,0.4l0,0v0.7c0,0.2-0.1,0.4-0.3,0.4l0,0
				c-0.5,0.3-1.3,0.4-2,0.4l0,0c-0.9,0-1.5-0.2-2-0.7l0,0c-0.5-0.4-0.7-1.1-0.7-1.9l0,0l0-5.9H97.6"/>
		</g>
		<g>
			<path class="st2" d="M104,13.4c0-0.9,0.4-1.7,1.2-2.2l0,0c0.7-0.4,1.7-0.9,2.7-1.2l0,0l1.4-0.5c0.4-0.2,0.5-0.2,0.5-0.5l0,0V8.6
				c0-0.8-0.4-1.1-1.6-1.1l0,0c-1,0-2.1,0.3-2.8,0.7l0,0c-0.2,0.1-0.3,0.2-0.4,0.2l0,0c-0.1,0-0.2,0-0.3-0.1l0,0
				c-0.1-0.1-0.1-0.2-0.1-0.3l0,0V7.3c0-0.3,0.1-0.5,0.2-0.6l0,0c0.6-0.4,2.3-0.7,3.6-0.7l0,0c1.1,0,1.9,0.2,2.5,0.7l0,0
				c0.6,0.5,0.8,1.1,0.8,2l0,0v6.9c0,0.2-0.2,0.4-0.4,0.4l0,0h-1c-0.1,0-0.3,0-0.3-0.1l0,0c-0.1-0.1-0.1-0.2-0.1-0.3l0,0v0
				c-0.2,0-0.2,0-0.4,0.1l0,0l-0.3,0.2c-0.5,0.2-1.3,0.4-1.9,0.4l0,0C105.4,16.1,104,15,104,13.4L104,13.4z M108,11.5L108,11.5
				c-1.6,0.5-1.9,0.9-1.9,1.8l0,0c0,0.8,0.5,1.3,1.7,1.3l0,0c0.6,0,1.1-0.1,1.6-0.3l0,0c0.4-0.2,0.5-0.3,0.5-0.9l0,0v-2.5L108,11.5"
				/>
		</g>
		<g>
			<path class="st2" d="M114.4,14.8c-0.8-0.9-1.3-2.1-1.3-3.6l0,0c0-1.6,0.4-2.9,1.2-3.8l0,0c0.8-0.9,1.9-1.4,3.2-1.4l0,0
				c2.5,0,4.2,1.8,4.2,4.5l0,0V11c0,0.2-0.2,0.4-0.4,0.4l0,0h-6.3v0c0,1.9,1.2,3.2,3,3.2l0,0c0.6,0,1.5-0.3,2.3-0.7l0,0l0.1-0.1
				c0.1-0.1,0.2-0.1,0.3-0.1l0,0c0.2,0,0.4,0.2,0.4,0.4l0,0v0.7c0,0.3-0.1,0.5-0.5,0.6l0,0c-0.8,0.4-1.9,0.6-2.9,0.6l0,0
				C116.4,16.1,115.2,15.6,114.4,14.8L114.4,14.8z M119.8,9.8C119.8,9.8,119.8,9.7,119.8,9.8L119.8,9.8c0-1.4-0.9-2.3-2.3-2.3l0,0
				c-1.3,0-2.3,0.9-2.4,2.3l0,0H119.8L119.8,9.8z"/>
		</g>
		<g>
			<path class="st2" d="M122.2,7.7c-0.2,0-0.4-0.2-0.4-0.4l0,0V6.5c0-0.2,0.2-0.4,0.4-0.4l0,0h1V4c0-0.2,0.2-0.4,0.4-0.4l0,0h1.2
				c0.2,0,0.4,0.2,0.4,0.4l0,0v2.2h2.7c0.2,0,0.4,0.2,0.4,0.4l0,0v0.8c0,0.2-0.2,0.4-0.4,0.4l0,0l-2.7,0v5.5c0,1,0.4,1.4,1.3,1.4
				l0,0c0.3,0,0.7-0.1,0.9-0.2l0,0l0.2-0.1c0.1,0,0.2-0.1,0.3-0.1l0,0c0.2,0,0.3,0.2,0.3,0.4l0,0v0.7c0,0.2-0.1,0.4-0.3,0.4l0,0
				c-0.5,0.3-1.3,0.4-2,0.4l0,0c-0.9,0-1.5-0.2-2-0.7l0,0c-0.5-0.4-0.7-1.1-0.7-1.9l0,0V7.7H122.2"/>
		</g>
		<g>
			<path class="st2" d="M135.5,16c-0.2,0-0.4-0.2-0.4-0.4l0,0V9.5c0-1.3-0.6-1.9-2.1-1.9l0,0c-0.5,0-0.9,0.1-1.3,0.2l0,0
				C131.2,8,131,8.2,131,8.7l0,0v6.9c0,0.2-0.2,0.4-0.4,0.4l0,0h-1.2c-0.2,0-0.4-0.2-0.4-0.4l0,0V2.7c0-0.2,0.2-0.4,0.4-0.4l0,0h1.2
				c0.2,0,0.4,0.2,0.4,0.4l0,0v3.9c0.1,0,0.2,0,0.4-0.1l0,0c0.8-0.4,1.5-0.5,2.2-0.5l0,0c1.1,0,1.9,0.3,2.6,0.9l0,0
				c0.6,0.6,1,1.5,1,2.5l0,0v6.2c0,0.2-0.2,0.4-0.4,0.4l0,0H135.5L135.5,16z"/>
		</g>
		<g>
			<path class="st2" d="M58,28.9c0.1,0,0.2,0,0.4,0.2l0,0c0.6,0.4,1.7,0.7,2.5,0.7l0,0c1.4,0,2.2-0.7,2.2-1.9l0,0
				c0-0.3-0.1-0.6-0.2-0.9l0,0c-0.2-0.3-0.4-0.5-1-1l0,0l-2.3-1.6c-0.4-0.3-0.7-0.5-1-0.8l0,0c-0.5-0.5-0.8-1.3-0.8-2.2l0,0
				c0-1.1,0.4-1.9,1.1-2.5l0,0c0.7-0.6,1.7-0.9,2.9-0.9l0,0c1,0,2,0.2,2.8,0.5l0,0c0.2,0.1,0.3,0.2,0.3,0.5l0,0v1.1
				c0,0.1,0,0.2,0,0.3l0,0c0,0.1-0.1,0.1-0.2,0.1l0,0c-0.1,0-0.2,0-0.4-0.2l0,0c-0.7-0.5-1.5-0.7-2.3-0.7l0,0
				c-1.3,0-2.1,0.7-2.1,1.7l0,0c0,0.6,0.2,1,1,1.6l0,0l2.4,1.6c1.4,1,2,1.9,2,3.2l0,0c0,2.2-1.7,3.7-4.3,3.7l0,0
				c-1,0-2.1-0.2-2.9-0.5l0,0c-0.3-0.1-0.5-0.2-0.4-0.5l0,0v-1.2C57.7,29,57.8,28.9,58,28.9L58,28.9"/>
		</g>
		<g>
			<path class="st2" d="M66.1,28.6c0-0.9,0.4-1.7,1.2-2.2l0,0C68,26,69,25.5,70,25.2l0,0l1.4-0.5c0.4-0.2,0.5-0.2,0.5-0.5l0,0l0-0.4
				c0-0.8-0.4-1.1-1.6-1.1l0,0c-1,0-2.1,0.3-2.8,0.7l0,0c-0.2,0.1-0.3,0.2-0.4,0.2l0,0c-0.1,0-0.2,0-0.3-0.1l0,0
				c-0.1-0.1-0.1-0.2-0.1-0.3l0,0v-0.8c0-0.3,0.1-0.5,0.2-0.6l0,0c0.6-0.4,2.3-0.7,3.6-0.7l0,0c1.1,0,1.9,0.2,2.5,0.7l0,0
				c0.6,0.5,0.8,1.1,0.8,2l0,0v6.9c0,0.2-0.2,0.4-0.4,0.4l0,0h-1c-0.1,0-0.3,0-0.3-0.1l0,0c-0.1-0.1-0.1-0.2-0.1-0.3l0,0v0
				c-0.2,0-0.2,0-0.4,0.1l0,0L71.3,31c-0.5,0.2-1.3,0.4-1.9,0.4l0,0C67.5,31.3,66.1,30.2,66.1,28.6L66.1,28.6z M70.1,26.7L70.1,26.7
				c-1.6,0.5-1.9,0.9-1.9,1.8l0,0c0,0.9,0.5,1.3,1.7,1.3l0,0c0.6,0,1.1-0.1,1.6-0.3l0,0c0.4-0.2,0.5-0.3,0.5-0.9l0,0v-2.5L70.1,26.7
				"/>
		</g>
		<g>
			<path class="st2" d="M76.6,31.2c-0.2,0-0.4-0.2-0.4-0.4l0,0v-7.9H75c-0.2,0-0.4-0.2-0.4-0.4l0,0v-0.8c0-0.2,0.2-0.4,0.4-0.4l0,0
				h1.2v-1c0-1.1,0.2-1.8,0.9-2.3l0,0c0.5-0.4,1.3-0.7,2-0.7l0,0c0.8,0,1.4,0.2,1.4,0.6l0,0v0.8c0,0.2-0.1,0.4-0.3,0.4l0,0
				c-0.1,0-0.2,0-0.2-0.1l0,0L79.7,19c-0.1-0.1-0.3-0.1-0.5-0.1l0,0c-0.7,0-1,0.4-1.1,1.3l0,0l0,1.1l1.8,0c0.2,0,0.4,0.2,0.4,0.4
				l0,0v0.8c0,0.1,0,0.2-0.1,0.3l0,0c-0.1,0.1-0.2,0.1-0.3,0.1l0,0h-1.8v7.9c0,0.2-0.2,0.4-0.4,0.4l0,0H76.6L76.6,31.2z"/>
		</g>
		<g>
			<path class="st2" d="M85,21.2c1.5,0,2.7,0.5,3.5,1.4l0,0c0.8,0.9,1.3,2.2,1.3,3.8l0,0c0,1.6-0.4,2.9-1.3,3.8l0,0
				c-0.8,0.9-2,1.4-3.4,1.4l0,0h0l0,0c-1.5,0-2.7-0.5-3.5-1.4l0,0c-0.8-0.9-1.3-2.2-1.3-3.8l0,0c0-1.6,0.4-2.9,1.3-3.8l0,0
				C82.4,21.7,83.5,21.2,85,21.2L85,21.2 M83.1,29.2c0.4,0.5,1.1,0.8,1.9,0.8l0,0c1.8,0,2.6-1.2,2.6-3.6l0,0c0-2.5-0.9-3.6-2.7-3.6
				l0,0c-1.8,0-2.6,1.1-2.6,3.6l0,0C82.4,27.8,82.6,28.5,83.1,29.2L83.1,29.2"/>
		</g>
		<g>
			<path class="st2" d="M92.9,21.8c0.2,0,0.2,0,0.5-0.1l0,0c0.2-0.1,0.4-0.2,0.5-0.2l0,0c0.6-0.2,1.2-0.3,1.8-0.3l0,0
				c1.1,0,1.9,0.3,2.5,0.9l0,0c0.6,0.6,0.9,1.4,0.9,2.5l0,0v6.2c0,0.2-0.2,0.4-0.4,0.4l0,0h-1.2l0,0c-0.2,0-0.4-0.2-0.4-0.4l0,0
				v-5.9c0-1.5-0.6-2.1-2.1-2.1l0,0c-0.5,0-0.9,0.1-1.3,0.2l0,0c-0.5,0.2-0.7,0.4-0.7,0.9l0,0v6.9c0,0.2-0.2,0.4-0.4,0.4l0,0h-1.2
				c-0.2,0-0.4-0.2-0.4-0.4l0,0v-9c0-0.2,0.2-0.4,0.4-0.4l0,0h0.9c0.2,0,0.3,0,0.4,0.1l0,0C92.8,21.5,92.8,21.7,92.9,21.8L92.9,21.8
				L92.9,21.8L92.9,21.8"/>
		</g>
		<g>
			<path class="st2" d="M100.2,28.6c0-0.9,0.4-1.7,1.2-2.2l0,0c0.7-0.4,1.7-0.9,2.7-1.2l0,0l1.4-0.5c0.4-0.2,0.5-0.2,0.5-0.5l0,0
				l0-0.4c0-0.8-0.4-1.1-1.6-1.1l0,0c-1,0-2.1,0.3-2.8,0.7l0,0c-0.2,0.1-0.3,0.2-0.4,0.2l0,0c-0.1,0-0.2,0-0.3-0.1l0,0
				c-0.1-0.1-0.1-0.2-0.1-0.3l0,0v-0.8c0-0.3,0-0.4,0.2-0.6l0,0c0.6-0.4,2.3-0.7,3.6-0.7l0,0c1.1,0,1.9,0.2,2.5,0.7l0,0
				c0.6,0.5,0.8,1.1,0.8,2l0,0v6.9c0,0.2-0.2,0.4-0.4,0.4l0,0h-1c-0.1,0-0.3,0-0.3-0.1l0,0c-0.1-0.1-0.1-0.2-0.1-0.3l0,0v0
				c-0.2,0-0.2,0-0.4,0.1l0,0l-0.3,0.2c-0.5,0.2-1.3,0.4-1.9,0.4l0,0C101.6,31.3,100.2,30.2,100.2,28.6L100.2,28.6z M104.2,26.7
				L104.2,26.7c-1.6,0.5-1.9,0.9-1.9,1.8l0,0c0,0.8,0.5,1.3,1.7,1.3l0,0c0.6,0,1.1-0.1,1.6-0.3l0,0c0.4-0.2,0.5-0.3,0.5-0.9l0,0
				v-2.5L104.2,26.7"/>
		</g>
		<g>
			<path class="st2" d="M110.7,30.5c-0.6-0.5-0.9-1.3-0.9-2.3l0,0v-6.5c0-0.2,0.2-0.4,0.4-0.4l0,0h1.2c0.2,0,0.4,0.2,0.4,0.4l0,0
				v5.9c0,0.9,0.2,1.4,0.6,1.7l0,0c0.4,0.3,0.9,0.4,1.5,0.4l0,0c0.4,0,0.8-0.1,1.2-0.2l0,0c0.7-0.2,0.8-0.4,0.8-0.9l0,0v-7
				c0-0.2,0.2-0.4,0.4-0.4l0,0h1.2c0.2,0,0.4,0.2,0.4,0.4l0,0v9c0,0.2-0.2,0.4-0.4,0.4l0,0h-1c-0.2,0-0.4-0.2-0.4-0.4l0,0v-0.1
				c-0.2,0-0.3,0-0.5,0.1l0,0l0,0l-0.6,0.2c-0.6,0.2-1.2,0.3-1.9,0.3l0,0C112.1,31.3,111.3,31,110.7,30.5L110.7,30.5z"/>
		</g>
		<g>
			<path class="st2" d="M58.6,46.1c-0.2,0-0.3-0.1-0.3-0.3l0,0V33.4c0-0.2,0.1-0.3,0.3-0.3l0,0h3.7c1.2,0,2.2,0.3,2.9,0.8l0,0
				c0.7,0.6,1,1.4,1,2.4l0,0c0,1.4-0.7,2.4-2,2.7l0,0c0,0,0,0,0,0l0,0c0.4,0.1,0.7,0.2,1,0.4l0,0C66.4,40,67,41,67,42.4l0,0
				c0,1.1-0.4,2.1-1.2,2.7l0,0c-0.8,0.6-1.9,1-3.2,1l0,0L58.6,46.1L58.6,46.1z M62.3,44.7c1.8,0,2.6-0.8,2.6-2.3l0,0
				c0-1.6-0.9-2.4-2.7-2.4l0,0h-1.8v4.7H62.3 M61.7,38.5c1.1,0,1.3-0.1,1.8-0.5l0,0c0.4-0.4,0.6-0.9,0.6-1.5l0,0c0-1.3-0.7-2-2-2.1
				l0,0h-1.8v4.1H61.7"/>
		</g>
		<g>
			<path class="st2" d="M76.1,45.4l-0.2-0.6l-0.4-1.6L75,41.4l-0.4-1.9l-0.2-0.9l-0.2,0.9l-0.5,1.8l-0.5,1.9
				c-0.5,1.8-0.6,2.5-0.9,2.8l0,0c-0.1,0.2-0.4,0.3-0.7,0.3l0,0h-0.9c-0.5,0-0.7-0.2-0.9-0.7l0,0l-0.1-0.4l-2.6-8.2
				c0-0.1-0.1-0.2-0.1-0.3l0,0c0-0.2,0.2-0.3,0.4-0.3l0,0h1.1c0.3,0,0.5,0.1,0.6,0.5l0,0l2.2,7.3l0,0l0.4-1.5l0.7-2.4l0.4-1.5
				l0.3-1.1c0.1-0.4,0.2-0.8,0.3-1l0,0c0.1-0.2,0.4-0.3,0.7-0.3l0,0H75c0.5,0,0.7,0.2,0.8,0.7l0,0l0.1,0.4l0.3,1.3l0.5,1.7
				c0.3,1.2,0.5,2,0.6,2.2l0,0c0.2,0.8,0.3,1.2,0.3,1.3l0,0c0,0,0,0.1,0,0.1l0,0l2.1-7.4c0.1-0.3,0.3-0.5,0.5-0.4l0,0h0.8
				c0.1,0,0.2,0,0.3,0.1l0,0c0.1,0.1,0.1,0.2,0.1,0.3l0,0c0,0,0,0.1,0,0.1l0,0l-0.1,0.1l-2.5,8l-0.1,0.5c-0.2,0.7-0.4,0.9-0.9,0.9
				l0,0H77c0,0-0.1,0-0.1,0l0,0C76.5,46.2,76.3,46,76.1,45.4L76.1,45.4z M74.4,38.5L74.4,38.5L74.4,38.5L74.4,38.5L74.4,38.5z"/>
		</g>
		<g>
			<path class="st2" d="M88.6,36.7c0.1-0.3,0.3-0.4,0.6-0.4l0,0H90c0.3,0,0.5,0.1,0.5,0.3l0,0c0,0.1,0,0.2-0.1,0.3l0,0l-3.2,8.7
				l-0.4,1.1c-0.4,1-0.8,1.9-1.1,2.5l0,0c-0.4,0.7-0.8,1-1.5,1l0,0c0,0,0,0,0,0l0,0H84c-0.2,0-0.3,0-0.4-0.1l0,0
				c-0.1-0.1-0.1-0.2-0.1-0.4l0,0V49c0-0.3,0.1-0.5,0.4-0.5l0,0H84c0.2,0,0.2,0,0.3-0.2l0,0c0.2-0.3,0.4-0.7,0.6-1.3l0,0l0.4-1.1
				l-3.7-8.9c-0.1-0.2-0.1-0.2-0.1-0.3l0,0c0-0.2,0.2-0.3,0.5-0.3l0,0h1.1c0.3,0,0.5,0.1,0.6,0.4l0,0l2.6,6.8L88.6,36.7"/>
		</g>
		<g>
			<path class="st2" d="M91.6,44.8c-0.8-0.9-1.3-2.1-1.3-3.6l0,0c0-3,2-5.1,4.7-5.1l0,0c0.7,0,1.4,0.2,1.8,0.4l0,0l0.2,0.1
				c0.1,0.1,0.1,0.1,0.2,0.1l0,0c0,0,0,0,0,0l0,0l0-3.9c0-0.2,0.2-0.4,0.4-0.4l0,0h1.2c0.2,0,0.4,0.2,0.4,0.4l0,0l0,12.9
				c0,0.2-0.2,0.4-0.4,0.4l0,0h-1c-0.2,0-0.4-0.2-0.4-0.4l0,0v0c-0.1,0-0.2,0-0.3,0.1l0,0L97,45.8c-0.6,0.3-1.3,0.4-2,0.4l0,0
				C93.6,46.2,92.4,45.7,91.6,44.8L91.6,44.8z M93.2,38.6c-0.6,0.7-0.8,1.3-0.8,2.7l0,0c0,2.2,1.1,3.4,3,3.4l0,0
				c0.4,0,0.8-0.1,1.1-0.2l0,0c0.6-0.2,0.8-0.4,0.8-0.9l0,0l0-4.8c0-0.4-0.1-0.6-0.4-0.8l0,0l0,0c-0.4-0.2-0.9-0.3-1.5-0.3l0,0
				C94.5,37.6,93.7,37.9,93.2,38.6L93.2,38.6z"/>
		</g>
	</g>
</g>
</svg>
