<?xml version="1.0" encoding="UTF-8"?>
<svg width="20px" height="14px" viewBox="0 0 20 14" version="1.1" xmlns="http://www.w3.org/2000/svg" xmlns:xlink="http://www.w3.org/1999/xlink">
    <!-- Generator: Sketch 44.1 (41455) - http://www.bohemiancoding.com/sketch -->
    <title>Group</title>
    <desc>Created with Sketch.</desc>
    <defs></defs>
    <g id="Page-1" stroke="none" stroke-width="1" fill="none" fill-rule="evenodd">
        <g id="Group" fill-rule="nonzero" fill="#007c75">
            <path d="M1,0 L19,0 C19.5522847,-1.01453063e-16 20,0.44771525 20,1 C20,1.55228475 19.5522847,2 19,2 L1,2 C0.44771525,2 6.76353751e-17,1.55228475 0,1 C-6.76353751e-17,0.44771525 0.44771525,1.01453063e-16 1,0 Z" id="Rectangle"></path>
            <path d="M1,6 L19,6 C19.5522847,6 20,6.44771525 20,7 C20,7.55228475 19.5522847,8 19,8 L1,8 C0.44771525,8 6.76353751e-17,7.55228475 0,7 C-6.76353751e-17,6.44771525 0.44771525,6 1,6 Z" id="Rectangle"></path>
            <path d="M1,12 L19,12 C19.5522847,12 20,12.4477153 20,13 C20,13.5522847 19.5522847,14 19,14 L1,14 C0.44771525,14 6.76353751e-17,13.5522847 0,13 C-6.76353751e-17,12.4477153 0.44771525,12 1,12 Z" id="Rectangle"></path>
        </g>
    </g>
</svg>
