<?xml version="1.0" encoding="UTF-8"?>
<svg width="15px" height="15px" viewBox="0 0 15 15" version="1.1" xmlns="http://www.w3.org/2000/svg" xmlns:xlink="http://www.w3.org/1999/xlink">
    <!-- Generator: Sketch 44.1 (41455) - http://www.bohemiancoding.com/sketch -->
    <title>search icon</title>
    <desc>Created with Sketch.</desc>
    <defs>
        <polygon id="path-1" points="0 15 0 0 15 0 15 15"></polygon>
    </defs>
    <g id="Frontpage" stroke="none" stroke-width="1" fill="none" fill-rule="evenodd">
        <g id="FSA-Green-Teal-mobile-320" transform="translate(-275.000000, -23.000000)">
            <g id="Header">
                <g id="search-icon" transform="translate(275.000000, 23.000000)">
                    <mask id="mask-2" fill="white">
                        <use xlink:href="#path-1"></use>
                    </mask>
                    <g id="Clip-2"></g>
                    <path d="M6.5625,11.25 C3.973125,11.25 1.875,9.151875 1.875,6.5625 C1.875,3.973125 3.973125,1.875 6.5625,1.875 C9.151875,1.875 11.25,3.973125 11.25,6.5625 C11.25,9.151875 9.151875,11.25 6.5625,11.25 M14.7253125,13.3996875 L11.8134375,10.4878125 C12.63375,9.391875 13.125,8.03625 13.125,6.5625 C13.125,2.938125 10.186875,0 6.5625,0 C2.938125,0 0,2.938125 0,6.5625 C0,10.186875 2.938125,13.125 6.5625,13.125 C8.03625,13.125 9.3928125,12.63375 10.4878125,11.8134375 L13.3996875,14.7253125 C13.76625,15.091875 14.35875,15.091875 14.7253125,14.7253125 C15.091875,14.35875 15.091875,13.76625 14.7253125,13.3996875" id="Fill-1" fill="#18262C" mask="url(#mask-2)"></path>
                </g>
            </g>
        </g>
    </g>
</svg>