<svg id="9efabc4b-e5f2-4906-91b0-9c47d7e62d01" data-name="Layer 1" xmlns="http://www.w3.org/2000/svg" viewBox="0 0 40 40">
  <defs>
    <style>
      .e02e3c6a-748a-4996-8aad-9d06741fb6a3 {
        fill: #fff;
        fill-rule: evenodd;
      }
    </style>
  </defs>
  <title>instagram-icon</title>
  <path class="e02e3c6a-748a-4996-8aad-9d06741fb6a3" d="M40,20A20,20,0,1,1,20,0,20,20,0,0,1,40,20ZM20,12.62c2.4,0,2.69,0,3.64.05a5,5,0,0,1,1.67.31A3,3,0,0,1,27,14.69a5,5,0,0,1,.31,1.67c0,.95.05,1.23.05,3.64s0,2.69-.05,3.64A5,5,0,0,1,27,25.31,3,3,0,0,1,25.31,27a5,5,0,0,1-1.67.31c-.95,0-1.23.05-3.64.05s-2.69,0-3.64-.05A5,5,0,0,1,14.69,27,3,3,0,0,1,13,25.31a5,5,0,0,1-.31-1.67c0-.95-.05-1.23-.05-3.64s0-2.69.05-3.64A5,5,0,0,1,13,14.69,3,3,0,0,1,14.69,13a5,5,0,0,1,1.67-.31c.95,0,1.23-.05,3.64-.05M20,11c-2.44,0-2.75,0-3.71.05a6.61,6.61,0,0,0-2.18.42,4.6,4.6,0,0,0-2.63,2.63,6.61,6.61,0,0,0-.42,2.18c0,1-.05,1.27-.05,3.71s0,2.75.05,3.71a6.61,6.61,0,0,0,.42,2.18,4.6,4.6,0,0,0,2.63,2.63,6.61,6.61,0,0,0,2.18.42c1,0,1.27.05,3.71.05s2.75,0,3.71-.05a6.61,6.61,0,0,0,2.18-.42,4.6,4.6,0,0,0,2.63-2.63,6.61,6.61,0,0,0,.42-2.18c0-1,.05-1.27.05-3.71s0-2.75-.05-3.71a6.61,6.61,0,0,0-.42-2.18,4.6,4.6,0,0,0-2.63-2.63,6.61,6.61,0,0,0-2.18-.42c-1,0-1.27-.05-3.71-.05h0Zm0,4.38A4.62,4.62,0,1,0,24.62,20h0A4.62,4.62,0,0,0,20,15.38ZM20,23a3,3,0,1,1,3-3A3,3,0,0,1,20,23Zm4.8-8.88a1.08,1.08,0,1,1-1.08,1.08A1.08,1.08,0,0,1,24.8,14.12Z"/>
</svg>
